<svg width="112" height="66" viewBox="0 0 112 66" fill="none" xmlns="http://www.w3.org/2000/svg">
    <path d="M111.72 4.91602H0.279297V61.9879H111.72V4.91602Z" fill="url(#paint0_radial_1_2056)"/>
    <path d="M111.441 5.19584V61.7084H0.559123V5.19584H111.441ZM112 4.63672H0V62.2678H112V4.63672H112Z" fill="white"/>
    <path d="M0 12.0928H112" stroke="white" stroke-width="0.559223" stroke-miterlimit="10"/>
    <path d="M0 53.7246H112" stroke="white" stroke-width="0.559223" stroke-miterlimit="10"/>
    <path d="M20.0391 12.0928V53.7238" stroke="white" stroke-width="0.559223" stroke-miterlimit="10"/>
    <path d="M91.8066 12.0928V53.7238" stroke="white" stroke-width="0.559223" stroke-miterlimit="10"/>
    <path d="M20.0391 33.4521H91.8061" stroke="white" stroke-width="0.559223" stroke-miterlimit="10"/>
    <path d="M55.9715 1.47656L55.9414 65.4588" stroke="#231F20" stroke-width="0.0805653" stroke-miterlimit="10"/>
    <path d="M55.6277 1.4082L55.5977 65.2621" stroke="#231F20" stroke-width="0.0805653" stroke-miterlimit="10"/>
    <path d="M55.284 1.33984L55.2539 65.0654" stroke="#231F20" stroke-width="0.0805653" stroke-miterlimit="10"/>
    <path d="M54.9383 1.27148L54.9082 64.8689" stroke="#231F20" stroke-width="0.0805653" stroke-miterlimit="10"/>
    <path d="M54.5945 1.2041L54.5645 64.6732" stroke="#231F20" stroke-width="0.0805653" stroke-miterlimit="10"/>
    <path d="M54.2508 1.13574L54.2207 64.4765" stroke="#231F20" stroke-width="0.0805653" stroke-miterlimit="10"/>
    <path d="M53.9051 1.06836L53.875 64.2807" stroke="#231F20" stroke-width="0.0805653" stroke-miterlimit="10"/>
    <path d="M53.5613 1L53.5312 64.0842" stroke="#231F20" stroke-width="0.0805653" stroke-miterlimit="10"/>
    <path d="M53.5605 1L55.9716 1.47614" stroke="#231F20" stroke-width="0.0805653" stroke-miterlimit="10"/>
    <path d="M53.5605 1.36914L55.9716 1.85038" stroke="#231F20" stroke-width="0.0805653" stroke-miterlimit="10"/>
    <path d="M53.5605 1.73828L55.9716 2.2249" stroke="#231F20" stroke-width="0.0805653" stroke-miterlimit="10"/>
    <path d="M53.5605 2.10742L55.9716 2.59914" stroke="#231F20" stroke-width="0.0805653" stroke-miterlimit="10"/>
    <path d="M53.5605 2.47559L55.9716 2.97267" stroke="#231F20" stroke-width="0.0805653" stroke-miterlimit="10"/>
    <path d="M53.5605 2.84473L55.9716 3.34692" stroke="#231F20" stroke-width="0.0805653" stroke-miterlimit="10"/>
    <path d="M53.5605 3.21387L55.9716 3.72143" stroke="#231F20" stroke-width="0.0805653" stroke-miterlimit="10"/>
    <path d="M53.5605 3.58203L55.9716 4.09496" stroke="#231F20" stroke-width="0.0805653" stroke-miterlimit="10"/>
    <path d="M53.5605 3.95117L55.9716 4.46921" stroke="#231F20" stroke-width="0.0805653" stroke-miterlimit="10"/>
    <path d="M53.5605 4.32031L55.9716 4.84372" stroke="#231F20" stroke-width="0.0805653" stroke-miterlimit="10"/>
    <path d="M53.5586 4.68945L55.9699 5.21796" stroke="#231F20" stroke-width="0.0805653" stroke-miterlimit="10"/>
    <path d="M53.5586 5.05762L55.9696 5.5915" stroke="#231F20" stroke-width="0.0805653" stroke-miterlimit="10"/>
    <path d="M53.5586 5.42676L55.9696 5.96574" stroke="#231F20" stroke-width="0.0805653" stroke-miterlimit="10"/>
    <path d="M53.5586 5.7959L55.9696 6.34025" stroke="#231F20" stroke-width="0.0805653" stroke-miterlimit="10"/>
    <path d="M53.5586 6.16504L55.9696 6.71476" stroke="#231F20" stroke-width="0.0805653" stroke-miterlimit="10"/>
    <path d="M53.5586 6.53418L55.9696 7.08901" stroke="#231F20" stroke-width="0.0805653" stroke-miterlimit="10"/>
    <path d="M53.5586 6.90234L55.9696 7.46227" stroke="#231F20" stroke-width="0.0805653" stroke-miterlimit="10"/>
    <path d="M53.5586 7.27148L55.9696 7.83678" stroke="#231F20" stroke-width="0.0805653" stroke-miterlimit="10"/>
    <path d="M53.5586 7.64062L55.9696 8.2113" stroke="#231F20" stroke-width="0.0805653" stroke-miterlimit="10"/>
    <path d="M53.5586 8.00977L55.9696 8.58554" stroke="#231F20" stroke-width="0.0805653" stroke-miterlimit="10"/>
    <path d="M53.5586 8.37793L55.9696 8.95907" stroke="#231F20" stroke-width="0.0805653" stroke-miterlimit="10"/>
    <path d="M53.5566 8.74707L55.9677 9.33358" stroke="#231F20" stroke-width="0.0805653" stroke-miterlimit="10"/>
    <path d="M53.5566 9.11621L55.9677 9.70783" stroke="#231F20" stroke-width="0.0805653" stroke-miterlimit="10"/>
    <path d="M53.5566 9.48535L55.9677 10.0821" stroke="#231F20" stroke-width="0.0805653" stroke-miterlimit="10"/>
    <path d="M53.5566 9.85449L55.9677 10.4566" stroke="#231F20" stroke-width="0.0805653" stroke-miterlimit="10"/>
    <path d="M53.5566 10.2227L55.9677 10.8301" stroke="#231F20" stroke-width="0.0805653" stroke-miterlimit="10"/>
    <path d="M53.5566 10.5918L55.9677 11.2044" stroke="#231F20" stroke-width="0.0805653" stroke-miterlimit="10"/>
    <path d="M53.5566 10.9609L55.9677 11.5786" stroke="#231F20" stroke-width="0.0805653" stroke-miterlimit="10"/>
    <path d="M53.5566 11.3291L55.9677 11.9524" stroke="#231F20" stroke-width="0.0805653" stroke-miterlimit="10"/>
    <path d="M53.5566 11.6982L55.9677 12.3267" stroke="#231F20" stroke-width="0.0805653" stroke-miterlimit="10"/>
    <path d="M53.5566 12.0674L55.9677 12.7009" stroke="#231F20" stroke-width="0.0805653" stroke-miterlimit="10"/>
    <path d="M53.5566 12.4365L55.9677 13.0754" stroke="#231F20" stroke-width="0.0805653" stroke-miterlimit="10"/>
    <path d="M53.5566 12.8047L55.9677 13.4489" stroke="#231F20" stroke-width="0.0805653" stroke-miterlimit="10"/>
    <path d="M53.5547 13.1738L55.9657 13.8232" stroke="#231F20" stroke-width="0.0805653" stroke-miterlimit="10"/>
    <path d="M53.5547 13.543L55.9657 14.1974" stroke="#231F20" stroke-width="0.0805653" stroke-miterlimit="10"/>
    <path d="M53.5547 13.9121L55.9657 14.5722" stroke="#231F20" stroke-width="0.0805653" stroke-miterlimit="10"/>
    <path d="M53.5547 14.2812L55.9657 14.9464" stroke="#231F20" stroke-width="0.0805653" stroke-miterlimit="10"/>
    <path d="M53.5547 14.6504L55.9657 15.3207" stroke="#231F20" stroke-width="0.0805653" stroke-miterlimit="10"/>
    <path d="M53.5547 15.0186L55.9657 15.6942" stroke="#231F20" stroke-width="0.0805653" stroke-miterlimit="10"/>
    <path d="M53.5547 15.3877L55.966 16.0687" stroke="#231F20" stroke-width="0.0805653" stroke-miterlimit="10"/>
    <path d="M53.5547 15.7568L55.9657 16.443" stroke="#231F20" stroke-width="0.0805653" stroke-miterlimit="10"/>
    <path d="M53.5547 16.126L55.9657 16.8172" stroke="#231F20" stroke-width="0.0805653" stroke-miterlimit="10"/>
    <path d="M53.5547 16.4941L55.9657 17.1908" stroke="#231F20" stroke-width="0.0805653" stroke-miterlimit="10"/>
    <path d="M53.5547 16.8633L55.9657 17.5653" stroke="#231F20" stroke-width="0.0805653" stroke-miterlimit="10"/>
    <path d="M53.5527 17.2324L55.9638 17.9395" stroke="#231F20" stroke-width="0.0805653" stroke-miterlimit="10"/>
    <path d="M53.5527 17.6006L55.9638 18.3128" stroke="#231F20" stroke-width="0.0805653" stroke-miterlimit="10"/>
    <path d="M53.5527 17.9697L55.9638 18.6876" stroke="#231F20" stroke-width="0.0805653" stroke-miterlimit="10"/>
    <path d="M53.5527 18.3389L55.9638 19.0618" stroke="#231F20" stroke-width="0.0805653" stroke-miterlimit="10"/>
    <path d="M53.5527 18.708L55.9638 19.436" stroke="#231F20" stroke-width="0.0805653" stroke-miterlimit="10"/>
    <path d="M53.5527 19.0771L55.9638 19.8106" stroke="#231F20" stroke-width="0.0805653" stroke-miterlimit="10"/>
    <path d="M53.5527 19.4453L55.9638 20.1841" stroke="#231F20" stroke-width="0.0805653" stroke-miterlimit="10"/>
    <path d="M53.5527 19.8145L55.9638 20.5583" stroke="#231F20" stroke-width="0.0805653" stroke-miterlimit="10"/>
    <path d="M53.5527 20.1836L55.9638 20.9326" stroke="#231F20" stroke-width="0.0805653" stroke-miterlimit="10"/>
    <path d="M53.5527 20.5518L55.9638 21.3064" stroke="#231F20" stroke-width="0.0805653" stroke-miterlimit="10"/>
    <path d="M53.5527 20.9209L55.9638 21.6806" stroke="#231F20" stroke-width="0.0805653" stroke-miterlimit="10"/>
    <path d="M53.5508 21.29L55.9618 22.0549" stroke="#231F20" stroke-width="0.0805653" stroke-miterlimit="10"/>
    <path d="M53.5508 21.6592L55.9618 22.4291" stroke="#231F20" stroke-width="0.0805653" stroke-miterlimit="10"/>
    <path d="M53.5508 22.0283L55.9618 22.8039" stroke="#231F20" stroke-width="0.0805653" stroke-miterlimit="10"/>
    <path d="M53.5508 22.3975L55.9618 23.1781" stroke="#231F20" stroke-width="0.0805653" stroke-miterlimit="10"/>
    <path d="M53.5508 22.7666L55.9618 23.5524" stroke="#231F20" stroke-width="0.0805653" stroke-miterlimit="10"/>
    <path d="M53.5508 23.1348L55.9618 23.9262" stroke="#231F20" stroke-width="0.0805653" stroke-miterlimit="10"/>
    <path d="M53.5508 23.5039L55.9618 24.3004" stroke="#231F20" stroke-width="0.0805653" stroke-miterlimit="10"/>
    <path d="M53.5508 23.873L55.9618 24.6747" stroke="#231F20" stroke-width="0.0805653" stroke-miterlimit="10"/>
    <path d="M53.5508 24.2422L55.9618 25.0489" stroke="#231F20" stroke-width="0.0805653" stroke-miterlimit="10"/>
    <path d="M53.5508 24.6104L55.9618 25.4227" stroke="#231F20" stroke-width="0.0805653" stroke-miterlimit="10"/>
    <path d="M53.5488 24.9795L55.9599 25.797" stroke="#231F20" stroke-width="0.0805653" stroke-miterlimit="10"/>
    <path d="M53.5488 25.3486L55.9599 26.1712" stroke="#231F20" stroke-width="0.0805653" stroke-miterlimit="10"/>
    <path d="M53.5488 25.7168L55.9599 26.5447" stroke="#231F20" stroke-width="0.0805653" stroke-miterlimit="10"/>
    <path d="M53.5488 26.0859L55.9601 26.9193" stroke="#231F20" stroke-width="0.0805653" stroke-miterlimit="10"/>
    <path d="M53.5488 26.4551L55.9599 27.2935" stroke="#231F20" stroke-width="0.0805653" stroke-miterlimit="10"/>
    <path d="M53.5488 26.8242L55.9599 27.6677" stroke="#231F20" stroke-width="0.0805653" stroke-miterlimit="10"/>
    <path d="M53.5488 27.1924L55.9601 28.0415" stroke="#231F20" stroke-width="0.0805653" stroke-miterlimit="10"/>
    <path d="M53.5488 27.5615L55.9599 28.4158" stroke="#231F20" stroke-width="0.0805653" stroke-miterlimit="10"/>
    <path d="M53.5488 27.9307L55.9599 28.79" stroke="#231F20" stroke-width="0.0805653" stroke-miterlimit="10"/>
    <path d="M53.5488 28.2998L55.9599 29.1645" stroke="#231F20" stroke-width="0.0805653" stroke-miterlimit="10"/>
    <path d="M53.5488 28.6689L55.9599 29.5391" stroke="#231F20" stroke-width="0.0805653" stroke-miterlimit="10"/>
    <path d="M53.5488 29.0371L55.9599 29.9123" stroke="#231F20" stroke-width="0.0805653" stroke-miterlimit="10"/>
    <path d="M53.5488 29.4062L55.9599 30.2866" stroke="#231F20" stroke-width="0.0805653" stroke-miterlimit="10"/>
    <path d="M53.5469 29.7754L55.9579 30.6613" stroke="#231F20" stroke-width="0.0805653" stroke-miterlimit="10"/>
    <path d="M53.5469 30.1445L55.9579 31.0356" stroke="#231F20" stroke-width="0.0805653" stroke-miterlimit="10"/>
    <path d="M53.5469 30.5127L55.9579 31.4088" stroke="#231F20" stroke-width="0.0805653" stroke-miterlimit="10"/>
    <path d="M53.5469 30.8818L55.9579 31.7834" stroke="#231F20" stroke-width="0.0805653" stroke-miterlimit="10"/>
    <path d="M53.5469 31.251L55.9579 32.1579" stroke="#231F20" stroke-width="0.0805653" stroke-miterlimit="10"/>
    <path d="M53.5469 31.6201L55.9579 32.5321" stroke="#231F20" stroke-width="0.0805653" stroke-miterlimit="10"/>
    <path d="M53.5469 31.9883L55.9579 32.9054" stroke="#231F20" stroke-width="0.0805653" stroke-miterlimit="10"/>
    <path d="M53.5469 32.3574L55.9579 33.2799" stroke="#231F20" stroke-width="0.0805653" stroke-miterlimit="10"/>
    <path d="M53.5469 32.7266L55.9579 33.6544" stroke="#231F20" stroke-width="0.0805653" stroke-miterlimit="10"/>
    <path d="M53.5469 33.0957L55.9579 34.0286" stroke="#231F20" stroke-width="0.0805653" stroke-miterlimit="10"/>
    <path d="M53.5449 33.4648L55.956 34.4029" stroke="#231F20" stroke-width="0.0805653" stroke-miterlimit="10"/>
    <path d="M53.5449 33.833L55.956 34.7767" stroke="#231F20" stroke-width="0.0805653" stroke-miterlimit="10"/>
    <path d="M53.5449 34.2021L55.956 35.1509" stroke="#231F20" stroke-width="0.0805653" stroke-miterlimit="10"/>
    <path d="M53.5449 34.5713L55.956 35.5252" stroke="#231F20" stroke-width="0.0805653" stroke-miterlimit="10"/>
    <path d="M53.5449 34.9404L55.956 35.8997" stroke="#231F20" stroke-width="0.0805653" stroke-miterlimit="10"/>
    <path d="M53.5449 35.3086L55.956 36.2732" stroke="#231F20" stroke-width="0.0805653" stroke-miterlimit="10"/>
    <path d="M53.5449 35.6777L55.956 36.6475" stroke="#231F20" stroke-width="0.0805653" stroke-miterlimit="10"/>
    <path d="M53.5449 36.0469L55.956 37.0217" stroke="#231F20" stroke-width="0.0805653" stroke-miterlimit="10"/>
    <path d="M53.5449 36.416L55.956 37.3962" stroke="#231F20" stroke-width="0.0805653" stroke-miterlimit="10"/>
    <path d="M53.5449 36.7852L55.9562 37.7707" stroke="#231F20" stroke-width="0.0805653" stroke-miterlimit="10"/>
    <path d="M53.5449 37.1533L55.956 38.144" stroke="#231F20" stroke-width="0.0805653" stroke-miterlimit="10"/>
    <path d="M53.543 37.5225L55.954 38.5185" stroke="#231F20" stroke-width="0.0805653" stroke-miterlimit="10"/>
    <path d="M53.543 37.8916L55.9543 38.893" stroke="#231F20" stroke-width="0.0805653" stroke-miterlimit="10"/>
    <path d="M53.543 38.2607L55.954 39.2673" stroke="#231F20" stroke-width="0.0805653" stroke-miterlimit="10"/>
    <path d="M53.543 38.6289L55.954 39.6405" stroke="#231F20" stroke-width="0.0805653" stroke-miterlimit="10"/>
    <path d="M53.543 38.998L55.954 40.015" stroke="#231F20" stroke-width="0.0805653" stroke-miterlimit="10"/>
    <path d="M53.543 39.3672L55.954 40.3896" stroke="#231F20" stroke-width="0.0805653" stroke-miterlimit="10"/>
    <path d="M53.543 39.7363L55.954 40.7638" stroke="#231F20" stroke-width="0.0805653" stroke-miterlimit="10"/>
    <path d="M53.543 40.1045L55.954 41.1373" stroke="#231F20" stroke-width="0.0805653" stroke-miterlimit="10"/>
    <path d="M53.543 40.4736L55.954 41.5119" stroke="#231F20" stroke-width="0.0805653" stroke-miterlimit="10"/>
    <path d="M53.543 40.8428L55.954 41.8861" stroke="#231F20" stroke-width="0.0805653" stroke-miterlimit="10"/>
    <path d="M53.543 41.2119L55.954 42.2603" stroke="#231F20" stroke-width="0.0805653" stroke-miterlimit="10"/>
    <path d="M53.543 41.5801L55.954 42.6339" stroke="#231F20" stroke-width="0.0805653" stroke-miterlimit="10"/>
    <path d="M53.541 41.9492L55.9521 43.0084" stroke="#231F20" stroke-width="0.0805653" stroke-miterlimit="10"/>
    <path d="M53.541 42.3184L55.9521 43.3826" stroke="#231F20" stroke-width="0.0805653" stroke-miterlimit="10"/>
    <path d="M53.541 42.6865L55.9521 43.7562" stroke="#231F20" stroke-width="0.0805653" stroke-miterlimit="10"/>
    <path d="M53.541 43.0557L55.9521 44.1304" stroke="#231F20" stroke-width="0.0805653" stroke-miterlimit="10"/>
    <path d="M53.541 43.4248L55.9521 44.5049" stroke="#231F20" stroke-width="0.0805653" stroke-miterlimit="10"/>
    <path d="M53.541 43.7939L55.9521 44.8792" stroke="#231F20" stroke-width="0.0805653" stroke-miterlimit="10"/>
    <path d="M53.541 44.1631L55.9521 45.2537" stroke="#231F20" stroke-width="0.0805653" stroke-miterlimit="10"/>
    <path d="M53.541 44.5322L55.9521 45.6282" stroke="#231F20" stroke-width="0.0805653" stroke-miterlimit="10"/>
    <path d="M53.541 44.9014L55.9521 46.0024" stroke="#231F20" stroke-width="0.0805653" stroke-miterlimit="10"/>
    <path d="M53.541 45.2695L55.9521 46.376" stroke="#231F20" stroke-width="0.0805653" stroke-miterlimit="10"/>
    <path d="M53.541 45.6387L55.9521 46.7502" stroke="#231F20" stroke-width="0.0805653" stroke-miterlimit="10"/>
    <path d="M53.5391 46.0078L55.9501 47.1247" stroke="#231F20" stroke-width="0.0805653" stroke-miterlimit="10"/>
    <path d="M53.5391 46.377L55.9501 47.499" stroke="#231F20" stroke-width="0.0805653" stroke-miterlimit="10"/>
    <path d="M53.5391 46.7451L55.9501 47.8725" stroke="#231F20" stroke-width="0.0805653" stroke-miterlimit="10"/>
    <path d="M53.5391 47.1143L55.9501 48.2467" stroke="#231F20" stroke-width="0.0805653" stroke-miterlimit="10"/>
    <path d="M53.5391 47.4834L55.9504 48.6213" stroke="#231F20" stroke-width="0.0805653" stroke-miterlimit="10"/>
    <path d="M53.5391 47.8525L55.9501 48.9955" stroke="#231F20" stroke-width="0.0805653" stroke-miterlimit="10"/>
    <path d="M53.5391 48.2207L55.9501 49.369" stroke="#231F20" stroke-width="0.0805653" stroke-miterlimit="10"/>
    <path d="M53.5391 48.5898L55.9501 49.7435" stroke="#231F20" stroke-width="0.0805653" stroke-miterlimit="10"/>
    <path d="M53.5391 48.959L55.9501 50.1178" stroke="#231F20" stroke-width="0.0805653" stroke-miterlimit="10"/>
    <path d="M53.5391 49.3281L55.9501 50.4923" stroke="#231F20" stroke-width="0.0805653" stroke-miterlimit="10"/>
    <path d="M53.5391 49.6963L55.9501 50.8656" stroke="#231F20" stroke-width="0.0805653" stroke-miterlimit="10"/>
    <path d="M53.5371 50.0654L55.9482 51.2401" stroke="#231F20" stroke-width="0.0805653" stroke-miterlimit="10"/>
    <path d="M53.5371 50.4346L55.9482 51.6143" stroke="#231F20" stroke-width="0.0805653" stroke-miterlimit="10"/>
    <path d="M53.5371 50.8027L55.9482 51.9878" stroke="#231F20" stroke-width="0.0805653" stroke-miterlimit="10"/>
    <path d="M53.5371 51.1719L55.9482 52.3624" stroke="#231F20" stroke-width="0.0805653" stroke-miterlimit="10"/>
    <path d="M53.5371 51.541L55.9482 52.7366" stroke="#231F20" stroke-width="0.0805653" stroke-miterlimit="10"/>
    <path d="M53.5371 51.9102L55.9482 53.1111" stroke="#231F20" stroke-width="0.0805653" stroke-miterlimit="10"/>
    <path d="M53.5371 52.2793L55.9482 53.4854" stroke="#231F20" stroke-width="0.0805653" stroke-miterlimit="10"/>
    <path d="M53.5371 52.6475L55.9482 53.8589" stroke="#231F20" stroke-width="0.0805653" stroke-miterlimit="10"/>
    <path d="M53.5371 53.0166L55.9482 54.2331" stroke="#231F20" stroke-width="0.0805653" stroke-miterlimit="10"/>
    <path d="M53.5371 53.3857L55.9482 54.6076" stroke="#231F20" stroke-width="0.0805653" stroke-miterlimit="10"/>
    <path d="M53.5352 53.7549L55.9462 54.9819" stroke="#231F20" stroke-width="0.0805653" stroke-miterlimit="10"/>
    <path d="M53.5352 54.123L55.9462 55.3554" stroke="#231F20" stroke-width="0.0805653" stroke-miterlimit="10"/>
    <path d="M53.5352 54.4922L55.9462 55.7299" stroke="#231F20" stroke-width="0.0805653" stroke-miterlimit="10"/>
    <path d="M53.5352 54.8613L55.9462 56.1042" stroke="#231F20" stroke-width="0.0805653" stroke-miterlimit="10"/>
    <path d="M53.5352 55.2305L55.9462 56.4787" stroke="#231F20" stroke-width="0.0805653" stroke-miterlimit="10"/>
    <path d="M53.5352 55.5996L55.9462 56.8529" stroke="#231F20" stroke-width="0.0805653" stroke-miterlimit="10"/>
    <path d="M53.5352 55.9678L55.9462 57.2265" stroke="#231F20" stroke-width="0.0805653" stroke-miterlimit="10"/>
    <path d="M53.5352 56.3369L55.9462 57.6007" stroke="#231F20" stroke-width="0.0805653" stroke-miterlimit="10"/>
    <path d="M53.5352 56.7061L55.9462 57.9752" stroke="#231F20" stroke-width="0.0805653" stroke-miterlimit="10"/>
    <path d="M53.5352 57.0742L55.9462 58.3488" stroke="#231F20" stroke-width="0.0805653" stroke-miterlimit="10"/>
    <path d="M53.5352 57.4434L55.9462 58.723" stroke="#231F20" stroke-width="0.0805653" stroke-miterlimit="10"/>
    <path d="M53.5352 57.8125L55.9462 59.0973" stroke="#231F20" stroke-width="0.0805653" stroke-miterlimit="10"/>
    <path d="M53.5332 58.1816L55.9445 59.4718" stroke="#231F20" stroke-width="0.0805653" stroke-miterlimit="10"/>
    <path d="M53.5332 58.5508L55.9443 59.8463" stroke="#231F20" stroke-width="0.0805653" stroke-miterlimit="10"/>
    <path d="M53.5332 58.9199L55.9443 60.2205" stroke="#231F20" stroke-width="0.0805653" stroke-miterlimit="10"/>
    <path d="M53.5332 59.2881L55.9445 60.594" stroke="#231F20" stroke-width="0.0805653" stroke-miterlimit="10"/>
    <path d="M53.5332 59.6572L55.9443 60.9686" stroke="#231F20" stroke-width="0.0805653" stroke-miterlimit="10"/>
    <path d="M53.5332 60.0264L55.9443 61.3428" stroke="#231F20" stroke-width="0.0805653" stroke-miterlimit="10"/>
    <path d="M53.5332 60.3955L55.9443 61.717" stroke="#231F20" stroke-width="0.0805653" stroke-miterlimit="10"/>
    <path d="M53.5332 60.7637L55.9443 62.0906" stroke="#231F20" stroke-width="0.0805653" stroke-miterlimit="10"/>
    <path d="M53.5332 61.1328L55.9443 62.4651" stroke="#231F20" stroke-width="0.0805653" stroke-miterlimit="10"/>
    <path d="M53.5332 61.502L55.9443 62.8393" stroke="#231F20" stroke-width="0.0805653" stroke-miterlimit="10"/>
    <path d="M53.5332 61.8701L55.9443 63.2129" stroke="#231F20" stroke-width="0.0805653" stroke-miterlimit="10"/>
    <path d="M53.5312 62.2393L55.9423 63.5871" stroke="#231F20" stroke-width="0.0805653" stroke-miterlimit="10"/>
    <path d="M53.5312 62.6084L55.9423 63.9616" stroke="#231F20" stroke-width="0.0805653" stroke-miterlimit="10"/>
    <path d="M53.5312 62.9775L55.9423 64.3359" stroke="#231F20" stroke-width="0.0805653" stroke-miterlimit="10"/>
    <path d="M53.5312 63.3467L55.9423 64.7104" stroke="#231F20" stroke-width="0.0805653" stroke-miterlimit="10"/>
    <path d="M53.5312 63.7148L55.9423 65.0839" stroke="#231F20" stroke-width="0.0805653" stroke-miterlimit="10"/>
    <path d="M53.5312 64.084L55.9423 65.4582" stroke="#231F20" stroke-width="0.0805653" stroke-miterlimit="10"/>
    <path d="M55.9722 1.47656L55.918 65.4277" stroke="white" stroke-width="0.483392" stroke-miterlimit="10"/>
    <path d="M56.0994 1.77392C56.2645 1.70552 56.3429 1.51622 56.2745 1.35109C56.2061 1.18597 56.0168 1.10756 55.8517 1.17596C55.6866 1.24436 55.6082 1.43366 55.6766 1.59878C55.745 1.7639 55.9343 1.84231 56.0994 1.77392Z" fill="white"/>
    <path d="M56.2335 65.5154C56.2746 65.3415 56.1669 65.1672 55.993 65.1261C55.819 65.0851 55.6447 65.1928 55.6037 65.3667C55.5626 65.5406 55.6703 65.7149 55.8442 65.756C56.0182 65.7971 56.1925 65.6894 56.2335 65.5154Z" fill="white"/>
    <defs>
    <radialGradient id="paint0_radial_1_2056" cx="0" cy="0" r="1" gradientUnits="userSpaceOnUse" gradientTransform="translate(55.9996 33.452) scale(59.7032 59.7032)">
    <stop stop-color="#CB5242"/>
    <stop offset="0.3108" stop-color="#B03120"/>
    <stop offset="0.711" stop-color="#A12211"/>
    <stop offset="1" stop-color="#941200"/>
    </radialGradient>
    </defs>
    </svg>
    