<svg width="111" height="66" viewBox="0 0 111 66" fill="none" xmlns="http://www.w3.org/2000/svg">
    <path d="M110.542 0H0V66H110.542V0Z" fill="#F77823"/>
    <path d="M3.14453 5.27344V60.727H107.397V5.27344H3.14453ZM55.7635 26.7214C59.0076 26.9739 61.5704 29.6924 61.5704 33.0002C61.5704 36.308 59.0076 39.0265 55.7635 39.279V26.7214ZM54.7779 39.279C51.5337 39.0265 48.9709 36.308 48.9709 33.0002C48.9709 29.6924 51.5337 26.9739 54.7779 26.7214V39.279ZM54.7779 25.7317C50.9895 25.9859 47.9849 29.1485 47.9849 33.0002C47.9849 36.8519 50.9895 40.0145 54.7779 40.2687V59.741H4.13013V56.4935H12.9921C18.5435 56.4935 23.7623 54.3317 27.6877 50.4066C31.6129 46.4811 33.775 41.2624 33.775 35.7109V30.2895C33.775 24.7384 31.6129 19.5193 27.6877 15.5938C23.7623 11.6687 18.5435 9.50691 12.9921 9.50691H4.13013V6.25938H54.7779V25.7317ZM17.2025 33.0002C17.2025 36.8519 20.2071 40.0145 23.9955 40.2687V43.5149H4.36705V22.4856H23.9955V25.7317C20.2071 25.9859 17.2025 29.1485 17.2025 33.0002ZM23.9955 26.7214V39.279C20.7513 39.0265 18.1885 36.308 18.1885 33.0002C18.1885 29.6924 20.7513 26.9739 23.9955 26.7214ZM24.9811 44.5005V40.2687C28.7695 40.0145 31.7736 36.8519 31.7736 33.0002C31.7736 29.1485 28.7695 25.9859 24.9811 25.7317V21.5H4.36705V10.4925H12.9921C23.9081 10.4925 32.789 19.3734 32.789 30.2895V35.7109C32.789 46.627 23.9081 55.5079 12.9921 55.5079H4.36705V44.5005H24.9811ZM24.9811 39.279V26.7214C28.2252 26.9739 30.788 29.6924 30.788 33.0002C30.788 36.308 28.2252 39.0265 24.9811 39.279ZM106.411 9.50691H97.5492C91.9978 9.50691 86.7791 11.6687 82.8536 15.5938C78.9281 19.5193 76.7664 24.7384 76.7664 30.2895V35.7109C76.7664 41.2624 78.9281 46.4811 82.8536 50.4066C86.7791 54.3317 91.9978 56.4935 97.5492 56.4935H106.411V59.741H55.7635V40.2687C59.5519 40.0145 62.5564 36.8519 62.5564 33.0002C62.5564 29.1485 59.5519 25.9859 55.7635 25.7317V6.25938H106.411V9.50691ZM93.3388 33.0002C93.3388 29.1485 90.3343 25.9859 86.5459 25.7317V22.4856H106.174V43.5149H86.5459V40.2687C90.3343 40.0145 93.3388 36.8519 93.3388 33.0002ZM86.5459 39.279V26.7214C89.79 26.9739 92.3529 29.6924 92.3529 33.0002C92.3529 36.308 89.79 39.0265 86.5459 39.279ZM85.5603 21.5V25.7317C81.7719 25.9859 78.7673 29.1485 78.7673 33.0002C78.7673 36.8519 81.7719 40.0145 85.5603 40.2687V44.5005H106.174V55.5079H97.5492C86.6332 55.5079 77.7523 46.627 77.7523 35.7109V30.2895C77.7523 19.3734 86.6332 10.4925 97.5492 10.4925H106.174V21.5H85.5603ZM85.5603 26.7214V39.279C82.3161 39.0265 79.7533 36.308 79.7533 33.0002C79.7533 29.6924 82.3161 26.9739 85.5603 26.7214Z" fill="white"/>
    <path d="M98.2711 33.0006C98.2711 36.4742 101.097 39.3004 104.571 39.3004V40.2863C100.554 40.2863 97.2852 37.0178 97.2852 33.0006C97.2852 28.9834 100.554 25.7148 104.571 25.7148V26.7008C101.097 26.7008 98.2711 29.5269 98.2711 33.0006Z" fill="white"/>
    <path d="M13.2564 33.0006C13.2564 28.9834 9.98824 25.7148 5.9707 25.7148V26.7004C9.44433 26.7004 12.2705 29.5266 12.2705 33.0002C12.2705 36.4739 9.44433 39.3 5.9707 39.3V40.2856C9.9879 40.2863 13.2564 37.0178 13.2564 33.0006Z" fill="white"/>
    </svg>
    