<svg width="82" height="68" viewBox="0 0 82 68" fill="none" xmlns="http://www.w3.org/2000/svg">
    <g clip-path="url(#clip0_1_1649)">
    <rect width="68" height="81.2014" transform="matrix(0 1 -1 0 81.2012 0)" fill="white"/>
    <path d="M81.2012 136.002L81.2012 0L-0.000205994 0L-0.000205994 136.002L81.2012 136.002Z" fill="#F77823"/>
    <path d="M74.7129 3.86914L6.48708 3.86914L6.48708 132.133H74.7129L74.7129 3.86914ZM48.3249 68.6075C48.0143 72.5988 44.6696 75.7519 40.6 75.7519C36.5303 75.7519 33.1857 72.5988 32.875 68.6075L48.3249 68.6075ZM32.875 67.3948C33.1857 63.4035 36.5303 60.2504 40.6 60.2504C44.6696 60.2504 48.0143 63.4035 48.3249 67.3948H32.875ZM49.5425 67.3948C49.2298 62.7339 45.3388 59.0374 40.6 59.0374C35.8612 59.0374 31.9702 62.7339 31.6574 67.3948L7.70011 67.3948L7.70011 5.08175L11.6956 5.08175V15.9848C11.6956 22.8149 14.3553 29.2356 19.1845 34.0652C24.0141 38.8944 30.4348 41.5545 37.2649 41.5545H43.9351C50.7647 41.5545 57.1859 38.8944 62.0155 34.0652C66.8447 29.2356 69.5043 22.8149 69.5043 15.9848V5.08175L73.4999 5.08175L73.4999 67.3948H49.5425ZM40.6 21.165C35.8612 21.165 31.9702 24.8616 31.6574 29.5225H27.6636L27.6636 5.37324L53.5364 5.37324V29.5225H49.5425C49.2298 24.8616 45.3388 21.165 40.6 21.165ZM48.3249 29.5225L32.875 29.5225C33.1857 25.5312 36.5303 22.3781 40.6 22.3781C44.6696 22.3781 48.0143 25.5312 48.3249 29.5225ZM26.451 30.7351H31.6574C31.9702 35.3961 35.8612 39.0922 40.6 39.0922C45.3388 39.0922 49.2298 35.3961 49.5425 30.7351H54.749V5.37324L68.2917 5.37324V15.9848C68.2917 29.4151 57.3654 40.3415 43.9351 40.3415H37.2649C23.8346 40.3415 12.9082 29.4151 12.9082 15.9848V5.37324L26.451 5.37324L26.451 30.7351ZM32.875 30.7351L48.3249 30.7351C48.0143 34.7265 44.6696 37.8796 40.6 37.8796C36.5303 37.8796 33.1857 34.7265 32.875 30.7351ZM69.5043 130.921V120.018C69.5043 113.187 66.8447 106.767 62.0155 101.937C57.1859 97.1075 50.7647 94.4478 43.9351 94.4478H37.2649C30.4348 94.4478 24.0141 97.1075 19.1845 101.937C14.3553 106.767 11.6956 113.187 11.6956 120.018V130.921H7.70011L7.70011 68.6075H31.6574C31.9702 73.2684 35.8612 76.965 40.6 76.965C45.3388 76.965 49.2298 73.2684 49.5425 68.6075H73.4999L73.4999 130.921H69.5043ZM40.6 114.837C45.3388 114.837 49.2298 111.141 49.5425 106.48H53.5364L53.5364 130.629H27.6636V106.48H31.6574C31.9702 111.141 35.8612 114.837 40.6 114.837ZM32.875 106.48L48.3249 106.48C48.0143 110.471 44.6696 113.624 40.6 113.624C36.5303 113.624 33.1857 110.471 32.875 106.48ZM54.749 105.267H49.5425C49.2298 100.606 45.3388 96.9097 40.6 96.9097C35.8612 96.9097 31.9702 100.606 31.6574 105.267H26.451V130.629H12.9082V120.018C12.9082 106.587 23.8346 95.6608 37.2649 95.6608H43.9351C57.3654 95.6608 68.2917 106.587 68.2917 120.018V130.629H54.749L54.749 105.267ZM48.3249 105.267L32.875 105.267C33.1857 101.276 36.5303 98.1227 40.6 98.1227C44.6696 98.1227 48.0143 101.276 48.3249 105.267Z" fill="white"/>
    <path d="M40.6007 16.3105C45.5431 16.3105 49.5645 12.2896 49.5645 7.34668H48.3518C48.3518 11.6204 44.8748 15.0975 40.6011 15.0975C36.3274 15.0975 32.8503 11.6204 32.8503 7.34668L31.6377 7.34668C31.6369 12.2891 35.6582 16.3105 40.6007 16.3105Z" fill="white"/>
    </g>
    <defs>
    <clipPath id="clip0_1_1649">
    <rect width="68" height="81.2014" fill="white" transform="matrix(0 1 -1 0 81.2012 0)"/>
    </clipPath>
    </defs>
    </svg>
    