<svg width="114" height="72" viewBox="0 0 114 72" fill="none" xmlns="http://www.w3.org/2000/svg">
    <path d="M114 0H0V72H114V0Z" fill="url(#paint0_radial_1_2309)"/>
    <line x1="48.2" y1="5" x2="48.2" y2="66" stroke="white" stroke-opacity="0.22" stroke-width="0.4"/>
    <line x1="54.2" y1="5" x2="54.2" y2="66" stroke="white" stroke-opacity="0.22" stroke-width="0.4"/>
    <line x1="60.2" y1="5" x2="60.2" y2="66" stroke="white" stroke-opacity="0.22" stroke-width="0.4"/>
    <line x1="66.2" y1="5" x2="66.2" y2="66" stroke="white" stroke-opacity="0.22" stroke-width="0.4"/>
    <line x1="72.2" y1="5" x2="72.2" y2="66" stroke="white" stroke-opacity="0.22" stroke-width="0.4"/>
    <line x1="78.2" y1="5" x2="78.2" y2="66" stroke="white" stroke-opacity="0.22" stroke-width="0.4"/>
    <line x1="84.2" y1="5" x2="84.2" y2="66" stroke="white" stroke-opacity="0.22" stroke-width="0.4"/>
    <line x1="90.2" y1="5" x2="90.2" y2="66" stroke="white" stroke-opacity="0.22" stroke-width="0.4"/>
    <line x1="96.2" y1="5" x2="96.2" y2="66" stroke="white" stroke-opacity="0.22" stroke-width="0.4"/>
    <line x1="102.2" y1="5" x2="102.2" y2="66" stroke="white" stroke-opacity="0.22" stroke-width="0.4"/>
    <line x1="108.2" y1="5" x2="108.2" y2="66" stroke="white" stroke-opacity="0.22" stroke-width="0.4"/>
    <line x1="5" y1="46.8" x2="109" y2="46.8" stroke="white" stroke-opacity="0.22" stroke-width="0.4"/>
    <line x1="5" y1="52.8" x2="109" y2="52.8" stroke="white" stroke-opacity="0.22" stroke-width="0.4"/>
    <line x1="5" y1="58.8" x2="109" y2="58.8" stroke="white" stroke-opacity="0.22" stroke-width="0.4"/>
    <line x1="12.2" y1="5" x2="12.2" y2="66" stroke="white" stroke-opacity="0.22" stroke-width="0.4"/>
    <line x1="18.2" y1="5" x2="18.2" y2="66" stroke="white" stroke-opacity="0.22" stroke-width="0.4"/>
    <line x1="24.2" y1="5" x2="24.2" y2="66" stroke="white" stroke-opacity="0.22" stroke-width="0.4"/>
    <line x1="30.2" y1="5" x2="30.2" y2="66" stroke="white" stroke-opacity="0.22" stroke-width="0.4"/>
    <line x1="36.2" y1="5" x2="36.2" y2="66" stroke="white" stroke-opacity="0.22" stroke-width="0.4"/>
    <line x1="42.2" y1="5" x2="42.2" y2="66" stroke="white" stroke-opacity="0.22" stroke-width="0.4"/>
    <line x1="5" y1="10.8" x2="109" y2="10.8" stroke="white" stroke-opacity="0.22" stroke-width="0.4"/>
    <line x1="5" y1="16.8" x2="109" y2="16.8" stroke="white" stroke-opacity="0.22" stroke-width="0.4"/>
    <line x1="5" y1="22.8" x2="109" y2="22.8" stroke="white" stroke-opacity="0.22" stroke-width="0.4"/>
    <line x1="5" y1="28.8" x2="109" y2="28.8" stroke="white" stroke-opacity="0.22" stroke-width="0.4"/>
    <line x1="5" y1="34.8" x2="109" y2="34.8" stroke="white" stroke-opacity="0.22" stroke-width="0.4"/>
    <line x1="5" y1="40.8" x2="109" y2="40.8" stroke="white" stroke-opacity="0.22" stroke-width="0.4"/>
    <path d="M6 53.5H108" stroke="#FF6A6A" stroke-opacity="0.71" stroke-linecap="round" stroke-dasharray="3 3"/>
    <path d="M13 53H13.5C13.7761 53 14 53.2239 14 53.5C14 53.7761 13.7761 54 13.5 54H13V53Z" fill="white"/>
    <path d="M43 53H43.5C43.7761 53 44 53.2239 44 53.5C44 53.7761 43.7761 54 43.5 54H43V53Z" fill="white"/>
    <path d="M61 53H61.5C61.7761 53 62 53.2239 62 53.5C62 53.7761 61.7761 54 61.5 54H61V53Z" fill="white"/>
    <path d="M67 53H67.5C67.7761 53 68 53.2239 68 53.5C68 53.7761 67.7761 54 67.5 54H67V53Z" fill="white"/>
    <path d="M73 53H73.5C73.7761 53 74 53.2239 74 53.5C74 53.7761 73.7761 54 73.5 54H73V53Z" fill="white"/>
    <path d="M79 53H79.5C79.7761 53 80 53.2239 80 53.5C80 53.7761 79.7761 54 79.5 54H79V53Z" fill="white"/>
    <path d="M85 53H85.5C85.7761 53 86 53.2239 86 53.5C86 53.7761 85.7761 54 85.5 54H85V53Z" fill="white"/>
    <path d="M91 53H91.5C91.7761 53 92 53.2239 92 53.5C92 53.7761 91.7761 54 91.5 54H91V53Z" fill="white"/>
    <path d="M97 53H97.5C97.7761 53 98 53.2239 98 53.5C98 53.7761 97.7761 54 97.5 54H97V53Z" fill="white"/>
    <path d="M103 53H103.5C103.776 53 104 53.2239 104 53.5C104 53.7761 103.776 54 103.5 54H103V53Z" fill="white"/>
    <path d="M19 53H19.5C19.7761 53 20 53.2239 20 53.5C20 53.7761 19.7761 54 19.5 54H19V53Z" fill="white"/>
    <path d="M25 53H25.5C25.7761 53 26 53.2239 26 53.5C26 53.7761 25.7761 54 25.5 54H25V53Z" fill="white"/>
    <path d="M31 53H31.5C31.7761 53 32 53.2239 32 53.5C32 53.7761 31.7761 54 31.5 54H31V53Z" fill="white"/>
    <path d="M37 53H37.5C37.7761 53 38 53.2239 38 53.5C38 53.7761 37.7761 54 37.5 54H37V53Z" fill="white"/>
    <path d="M7 53H7.5C7.77614 53 8 53.2239 8 53.5C8 53.7761 7.77614 54 7.5 54H7V53Z" fill="white"/>
    <path d="M49 53H49.5C49.7761 53 50 53.2239 50 53.5C50 53.7761 49.7761 54 49.5 54H49V53Z" fill="white"/>
    <path d="M55 53H55.5C55.7761 53 56 53.2239 56 53.5C56 53.7761 55.7761 54 55.5 54H55V53Z" fill="white"/>
    <path d="M5 35.5H107" stroke="#FF6A6A" stroke-opacity="0.71" stroke-linecap="round" stroke-dasharray="3 3"/>
    <path d="M12 35H12.5C12.7761 35 13 35.2239 13 35.5C13 35.7761 12.7761 36 12.5 36H12V35Z" fill="white"/>
    <path d="M42 35H42.5C42.7761 35 43 35.2239 43 35.5C43 35.7761 42.7761 36 42.5 36H42V35Z" fill="white"/>
    <path d="M60 35H60.5C60.7761 35 61 35.2239 61 35.5C61 35.7761 60.7761 36 60.5 36H60V35Z" fill="white"/>
    <path d="M66 35H66.5C66.7761 35 67 35.2239 67 35.5C67 35.7761 66.7761 36 66.5 36H66V35Z" fill="white"/>
    <path d="M72 35H72.5C72.7761 35 73 35.2239 73 35.5C73 35.7761 72.7761 36 72.5 36H72V35Z" fill="white"/>
    <path d="M78 35H78.5C78.7761 35 79 35.2239 79 35.5C79 35.7761 78.7761 36 78.5 36H78V35Z" fill="white"/>
    <path d="M84 35H84.5C84.7761 35 85 35.2239 85 35.5C85 35.7761 84.7761 36 84.5 36H84V35Z" fill="white"/>
    <path d="M90 35H90.5C90.7761 35 91 35.2239 91 35.5C91 35.7761 90.7761 36 90.5 36H90V35Z" fill="white"/>
    <path d="M96 35H96.5C96.7761 35 97 35.2239 97 35.5C97 35.7761 96.7761 36 96.5 36H96V35Z" fill="white"/>
    <path d="M102 35H102.5C102.776 35 103 35.2239 103 35.5C103 35.7761 102.776 36 102.5 36H102V35Z" fill="white"/>
    <path d="M18 35H18.5C18.7761 35 19 35.2239 19 35.5C19 35.7761 18.7761 36 18.5 36H18V35Z" fill="white"/>
    <path d="M24 35H24.5C24.7761 35 25 35.2239 25 35.5C25 35.7761 24.7761 36 24.5 36H24V35Z" fill="white"/>
    <path d="M30 35H30.5C30.7761 35 31 35.2239 31 35.5C31 35.7761 30.7761 36 30.5 36H30V35Z" fill="white"/>
    <path d="M36 35H36.5C36.7761 35 37 35.2239 37 35.5C37 35.7761 36.7761 36 36.5 36H36V35Z" fill="white"/>
    <path d="M6 35H6.5C6.77614 35 7 35.2239 7 35.5C7 35.7761 6.77614 36 6.5 36H6V35Z" fill="white"/>
    <path d="M48 35H48.5C48.7761 35 49 35.2239 49 35.5C49 35.7761 48.7761 36 48.5 36H48V35Z" fill="white"/>
    <path d="M54 35H54.5C54.7761 35 55 35.2239 55 35.5C55 35.7761 54.7761 36 54.5 36H54V35Z" fill="white"/>
    <path d="M6 17.5H108" stroke="#FF6A6A" stroke-opacity="0.71" stroke-linecap="round" stroke-dasharray="3 3"/>
    <path d="M13 17H13.5C13.7761 17 14 17.2239 14 17.5C14 17.7761 13.7761 18 13.5 18H13V17Z" fill="white"/>
    <path d="M43 17H43.5C43.7761 17 44 17.2239 44 17.5C44 17.7761 43.7761 18 43.5 18H43V17Z" fill="white"/>
    <path d="M61 17H61.5C61.7761 17 62 17.2239 62 17.5C62 17.7761 61.7761 18 61.5 18H61V17Z" fill="white"/>
    <path d="M67 17H67.5C67.7761 17 68 17.2239 68 17.5C68 17.7761 67.7761 18 67.5 18H67V17Z" fill="white"/>
    <path d="M73 17H73.5C73.7761 17 74 17.2239 74 17.5C74 17.7761 73.7761 18 73.5 18H73V17Z" fill="white"/>
    <path d="M79 17H79.5C79.7761 17 80 17.2239 80 17.5C80 17.7761 79.7761 18 79.5 18H79V17Z" fill="white"/>
    <path d="M85 17H85.5C85.7761 17 86 17.2239 86 17.5C86 17.7761 85.7761 18 85.5 18H85V17Z" fill="white"/>
    <path d="M91 17H91.5C91.7761 17 92 17.2239 92 17.5C92 17.7761 91.7761 18 91.5 18H91V17Z" fill="white"/>
    <path d="M97 17H97.5C97.7761 17 98 17.2239 98 17.5C98 17.7761 97.7761 18 97.5 18H97V17Z" fill="white"/>
    <path d="M103 17H103.5C103.776 17 104 17.2239 104 17.5C104 17.7761 103.776 18 103.5 18H103V17Z" fill="white"/>
    <path d="M19 17H19.5C19.7761 17 20 17.2239 20 17.5C20 17.7761 19.7761 18 19.5 18H19V17Z" fill="white"/>
    <path d="M25 17H25.5C25.7761 17 26 17.2239 26 17.5C26 17.7761 25.7761 18 25.5 18H25V17Z" fill="white"/>
    <path d="M31 17H31.5C31.7761 17 32 17.2239 32 17.5C32 17.7761 31.7761 18 31.5 18H31V17Z" fill="white"/>
    <path d="M37 17H37.5C37.7761 17 38 17.2239 38 17.5C38 17.7761 37.7761 18 37.5 18H37V17Z" fill="white"/>
    <path d="M7 17H7.5C7.77614 17 8 17.2239 8 17.5C8 17.7761 7.77614 18 7.5 18H7V17Z" fill="white"/>
    <path d="M49 17H49.5C49.7761 17 50 17.2239 50 17.5C50 17.7761 49.7761 18 49.5 18H49V17Z" fill="white"/>
    <path d="M55 17H55.5C55.7761 17 56 17.2239 56 17.5C56 17.7761 55.7761 18 55.5 18H55V17Z" fill="white"/>
    <path d="M5.5 66.5V5.5H108.342V66.5H5.5Z" stroke="white"/>
    <defs>
    <radialGradient id="paint0_radial_1_2309" cx="0" cy="0" r="1" gradientUnits="userSpaceOnUse" gradientTransform="translate(57 36) scale(57 90.25)">
    <stop stop-color="#97E6FF"/>
    <stop offset="0.359375" stop-color="#7DE0FF"/>
    <stop offset="0.666667" stop-color="#5CD8FF"/>
    <stop offset="1" stop-color="#4DD4FF"/>
    </radialGradient>
    </defs>
    </svg>
    