<svg width="114" height="72" viewBox="0 0 114 72" fill="none" xmlns="http://www.w3.org/2000/svg">
    <path d="M114 0H0V72H114V0Z" fill="url(#paint0_radial_1_2275)"/>
    <line x1="48.2" y1="5" x2="48.2" y2="66" stroke="white" stroke-opacity="0.22" stroke-width="0.4"/>
    <line x1="54.2" y1="5" x2="54.2" y2="66" stroke="white" stroke-opacity="0.22" stroke-width="0.4"/>
    <line x1="60.2" y1="5" x2="60.2" y2="66" stroke="white" stroke-opacity="0.22" stroke-width="0.4"/>
    <line x1="66.2" y1="5" x2="66.2" y2="66" stroke="white" stroke-opacity="0.22" stroke-width="0.4"/>
    <line x1="72.2" y1="5" x2="72.2" y2="66" stroke="white" stroke-opacity="0.22" stroke-width="0.4"/>
    <line x1="78.2" y1="5" x2="78.2" y2="66" stroke="white" stroke-opacity="0.22" stroke-width="0.4"/>
    <line x1="84.2" y1="5" x2="84.2" y2="66" stroke="white" stroke-opacity="0.22" stroke-width="0.4"/>
    <line x1="90.2" y1="5" x2="90.2" y2="66" stroke="white" stroke-opacity="0.22" stroke-width="0.4"/>
    <line x1="96.2" y1="5" x2="96.2" y2="66" stroke="white" stroke-opacity="0.22" stroke-width="0.4"/>
    <line x1="102.2" y1="5" x2="102.2" y2="66" stroke="white" stroke-opacity="0.22" stroke-width="0.4"/>
    <line x1="108.2" y1="5" x2="108.2" y2="66" stroke="white" stroke-opacity="0.22" stroke-width="0.4"/>
    <line x1="5" y1="46.8" x2="109" y2="46.8" stroke="white" stroke-opacity="0.22" stroke-width="0.4"/>
    <line x1="5" y1="52.8" x2="109" y2="52.8" stroke="white" stroke-opacity="0.22" stroke-width="0.4"/>
    <line x1="5" y1="58.8" x2="109" y2="58.8" stroke="white" stroke-opacity="0.22" stroke-width="0.4"/>
    <line x1="12.2" y1="5" x2="12.2" y2="66" stroke="white" stroke-opacity="0.22" stroke-width="0.4"/>
    <line x1="18.2" y1="5" x2="18.2" y2="66" stroke="white" stroke-opacity="0.22" stroke-width="0.4"/>
    <line x1="24.2" y1="5" x2="24.2" y2="66" stroke="white" stroke-opacity="0.22" stroke-width="0.4"/>
    <line x1="30.2" y1="5" x2="30.2" y2="66" stroke="white" stroke-opacity="0.22" stroke-width="0.4"/>
    <line x1="36.2" y1="5" x2="36.2" y2="66" stroke="white" stroke-opacity="0.22" stroke-width="0.4"/>
    <line x1="42.2" y1="5" x2="42.2" y2="66" stroke="white" stroke-opacity="0.22" stroke-width="0.4"/>
    <line x1="5" y1="10.8" x2="109" y2="10.8" stroke="white" stroke-opacity="0.22" stroke-width="0.4"/>
    <line x1="5" y1="16.8" x2="109" y2="16.8" stroke="white" stroke-opacity="0.22" stroke-width="0.4"/>
    <line x1="5" y1="22.8" x2="109" y2="22.8" stroke="white" stroke-opacity="0.22" stroke-width="0.4"/>
    <line x1="5" y1="28.8" x2="109" y2="28.8" stroke="white" stroke-opacity="0.22" stroke-width="0.4"/>
    <line x1="5" y1="34.8" x2="109" y2="34.8" stroke="white" stroke-opacity="0.22" stroke-width="0.4"/>
    <line x1="5" y1="40.8" x2="109" y2="40.8" stroke="white" stroke-opacity="0.22" stroke-width="0.4"/>
    <path d="M5.5 66.5V5.5H108.342V66.5H5.5Z" stroke="white"/>
    <defs>
    <radialGradient id="paint0_radial_1_2275" cx="0" cy="0" r="1" gradientUnits="userSpaceOnUse" gradientTransform="translate(57 36) scale(57 90.25)">
    <stop stop-color="#97E6FF"/>
    <stop offset="0.359375" stop-color="#7DE0FF"/>
    <stop offset="0.666667" stop-color="#5CD8FF"/>
    <stop offset="1" stop-color="#4DD4FF"/>
    </radialGradient>
    </defs>
    </svg>
    