<svg width="103" height="64" viewBox="0 0 103 64" fill="none" xmlns="http://www.w3.org/2000/svg">
    <path d="M103 0H0V64H103V0Z" fill="url(#paint0_radial_1_2255)"/>
    <path d="M6.7832 53.7261V10.1291C6.7832 9.65128 7.17022 9.25948 7.64802 9.25948H97.3457C97.8235 9.25948 98.2152 9.65367 98.2152 10.1291V53.7261C98.2152 54.2039 97.8211 54.5957 97.3457 54.5957H7.64802C7.17022 54.5957 6.7832 54.2015 6.7832 53.7261ZM36.9802 63.0289C36.9802 62.7135 37.2359 62.4555 37.5464 62.4555C37.8618 62.4555 38.1198 62.7111 38.1198 63.0289C38.1198 63.3394 37.8642 63.5998 37.5464 63.5998C37.2359 63.5998 36.9802 63.337 36.9802 63.0289ZM36.9802 61.2992C36.9802 60.9767 37.2359 60.7282 37.5464 60.7282C37.8618 60.7282 38.1198 60.9791 38.1198 61.2992C38.1198 61.6098 37.8642 61.8654 37.5464 61.8654C37.2359 61.8654 36.9802 61.6074 36.9802 61.2992ZM36.9802 59.5696C36.9802 59.2471 37.2359 58.9962 37.5464 58.9962C37.8618 58.9962 38.1198 59.2471 38.1198 59.5696C38.1198 59.8801 37.8642 60.1358 37.5464 60.1358C37.2359 60.1358 36.9802 59.8801 36.9802 59.5696ZM36.9802 57.8352C36.9802 57.5198 37.2359 57.269 37.5464 57.269C37.8618 57.269 38.1198 57.5198 38.1198 57.8352C38.1198 58.1505 37.8642 58.4013 37.5464 58.4013C37.2359 58.4013 36.9802 58.1505 36.9802 57.8352ZM36.9802 56.1055C36.9802 55.7902 37.2359 55.5321 37.5464 55.5321C37.8618 55.5321 38.1198 55.7878 38.1198 56.1055C38.1198 56.4209 37.8642 56.6717 37.5464 56.6717C37.2359 56.6717 36.9802 56.4209 36.9802 56.1055ZM66.8715 63.0289C66.8715 62.7135 67.1271 62.4555 67.4449 62.4555C67.7602 62.4555 68.0158 62.7111 68.0158 63.0289C68.0158 63.3394 67.7602 63.5998 67.4449 63.5998C67.1295 63.5998 66.8715 63.337 66.8715 63.0289ZM66.8715 61.2992C66.8715 60.9767 67.1271 60.7282 67.4449 60.7282C67.7602 60.7282 68.0158 60.9791 68.0158 61.2992C68.0158 61.6098 67.7602 61.8654 67.4449 61.8654C67.1295 61.8654 66.8715 61.6074 66.8715 61.2992ZM66.8715 59.5696C66.8715 59.2471 67.1271 58.9962 67.4449 58.9962C67.7602 58.9962 68.0158 59.2471 68.0158 59.5696C68.0158 59.8801 67.7602 60.1358 67.4449 60.1358C67.1295 60.1358 66.8715 59.8801 66.8715 59.5696ZM66.8715 57.8352C66.8715 57.5198 67.1271 57.269 67.4449 57.269C67.7602 57.269 68.0158 57.5198 68.0158 57.8352C68.0158 58.1505 67.7602 58.4013 67.4449 58.4013C67.1295 58.4013 66.8715 58.1505 66.8715 57.8352ZM66.8715 56.1055C66.8715 55.7902 67.1271 55.5321 67.4449 55.5321C67.7602 55.5321 68.0158 55.7878 68.0158 56.1055C68.0158 56.4209 67.7602 56.6717 67.4449 56.6717C67.1295 56.6717 66.8715 56.4209 66.8715 56.1055ZM36.9802 7.74963C36.9802 7.43428 37.2359 7.18344 37.5464 7.18344C37.8618 7.18344 38.1198 7.43428 38.1198 7.74963C38.1198 8.06498 37.8642 8.31583 37.5464 8.31583C37.2359 8.31583 36.9802 8.06498 36.9802 7.74963ZM36.9802 6.01999C36.9802 5.70464 37.2359 5.4538 37.5464 5.4538C37.8618 5.4538 38.1198 5.70464 38.1198 6.01999C38.1198 6.33534 37.8642 6.58618 37.5464 6.58618C37.2359 6.58618 36.9802 6.33534 36.9802 6.01999ZM36.9802 4.28557C36.9802 3.975 37.2359 3.71938 37.5464 3.71938C37.8618 3.71938 38.1198 3.975 38.1198 4.28557C38.1198 4.60809 37.8642 4.85893 37.5464 4.85893C37.2359 4.85654 36.9802 4.6057 36.9802 4.28557ZM36.9802 2.55593C36.9802 2.24536 37.2359 1.98974 37.5464 1.98974C37.8618 1.98974 38.1198 2.24536 38.1198 2.55593C38.1198 2.87128 37.8642 3.12929 37.5464 3.12929C37.2359 3.1269 36.9802 2.87128 36.9802 2.55593ZM36.9802 0.826291C36.9802 0.51572 37.2359 0.25293 37.5464 0.25293C37.8618 0.25293 38.1198 0.51572 38.1198 0.826291C38.1198 1.14164 37.8642 1.39965 37.5464 1.39965C37.2359 1.39965 36.9802 1.14164 36.9802 0.826291ZM66.8715 7.74963C66.8715 7.43428 67.1271 7.18344 67.4449 7.18344C67.7602 7.18344 68.0158 7.43428 68.0158 7.74963C68.0158 8.06498 67.7602 8.31583 67.4449 8.31583C67.1295 8.31583 66.8715 8.06498 66.8715 7.74963ZM66.8715 6.01999C66.8715 5.70464 67.1271 5.4538 67.4449 5.4538C67.7602 5.4538 68.0158 5.70464 68.0158 6.01999C68.0158 6.33534 67.7602 6.58618 67.4449 6.58618C67.1295 6.58618 66.8715 6.33534 66.8715 6.01999ZM66.8715 4.28557C66.8715 3.975 67.1271 3.71938 67.4449 3.71938C67.7602 3.71938 68.0158 3.975 68.0158 4.28557C68.0158 4.60809 67.7602 4.85893 67.4449 4.85893C67.1295 4.85654 66.8715 4.6057 66.8715 4.28557ZM66.8715 2.55593C66.8715 2.24536 67.1271 1.98974 67.4449 1.98974C67.7602 1.98974 68.0158 2.24536 68.0158 2.55593C68.0158 2.87128 67.7602 3.12929 67.4449 3.12929C67.1295 3.1269 66.8715 2.87128 66.8715 2.55593ZM66.8715 0.826291C66.8715 0.51572 67.1271 0.25293 67.4449 0.25293C67.7602 0.25293 68.0158 0.51572 68.0158 0.826291C68.0158 1.14164 67.7602 1.39965 67.4449 1.39965C67.1295 1.39965 66.8715 1.14164 66.8715 0.826291ZM50.9703 52.866V10.9867H38.4184V52.866H50.9703ZM54.0234 10.9867V52.866H66.5824V10.9867H54.0234ZM8.51045 10.9867V52.866H36.6792V10.9867H8.51045ZM68.3168 10.9867V52.866H96.4808V10.9867H68.3168Z" fill="white"/>
    <defs>
    <radialGradient id="paint0_radial_1_2255" cx="0" cy="0" r="1" gradientUnits="userSpaceOnUse" gradientTransform="translate(51.5 32) scale(55.1812 66.9507)">
    <stop stop-color="#4C8FC1"/>
    <stop offset="0.3108" stop-color="#407CB1"/>
    <stop offset="0.711" stop-color="#346AA2"/>
    <stop offset="1" stop-color="#30649D"/>
    </radialGradient>
    </defs>
    </svg>
    