<svg width="172" height="29" viewBox="0 0 172 29" fill="none" xmlns="http://www.w3.org/2000/svg">
    <mask id="mask0_1_3683" style="mask-type:luminance" maskUnits="userSpaceOnUse" x="0" y="0" width="33" height="29">
    <path d="M23.241 25.2743L3.19053 13.4621V7.36248L3.37345 7.24639L8.98056 3.64786L9.21272 3.78504L29.1788 15.548V21.6476L28.9959 21.7637L23.3888 25.3622L23.241 25.2743ZM0.27793 5.76899V15.1259L23.4521 28.7778L25.8546 27.2371L26.4984 26.822L32.0914 23.2305V13.8736L9.10367 0.330728L8.9102 0.22168L0.274414 5.76547L0.27793 5.76899Z" fill="white"/>
    </mask>
    <g mask="url(#mask0_1_3683)">
    <path d="M9.04227 -13.9787L-12.4785 20.9209L23.3283 43.0011L44.8491 8.10153L9.04227 -13.9787Z" fill="url(#paint0_linear_1_3683)"/>
    </g>
    <mask id="mask1_1_3683" style="mask-type:luminance" maskUnits="userSpaceOnUse" x="0" y="0" width="32" height="29">
    <path d="M16.0088 4.58669L15.7836 4.7274L9.30063 8.88876L6.67999 10.7074L19.5158 18.2668L19.8359 18.4743L13.3846 22.6146L13.2474 22.7025L9.62073 25.0312L9.46947 24.9432L5.55786 22.6392L9.14233 20.3387L6.32823 18.6818L6.19104 18.7698L0 22.7447L9.65239 28.4714L15.9736 24.4156L16.1987 24.2714L22.6782 20.11L25.2988 18.2949L12.4665 10.732L12.1429 10.528L18.5942 6.38772L18.7314 6.29978L22.3616 3.97111L22.5129 4.05905L26.4209 6.3631L23.037 8.53348L25.8511 10.1903L31.9823 6.25757L22.3299 0.527344L16.0088 4.58669Z" fill="white"/>
    </mask>
    <g mask="url(#mask1_1_3683)">
    <mask id="mask2_1_3683" style="mask-type:luminance" maskUnits="userSpaceOnUse" x="-39" y="-41" width="110" height="111">
    <path d="M70.631 -40.126H-38.6514V69.1247H70.631V-40.126Z" fill="white"/>
    </mask>
    <g mask="url(#mask2_1_3683)">
    <mask id="mask3_1_3683" style="mask-type:luminance" maskUnits="userSpaceOnUse" x="-13" y="-15" width="58" height="59">
    <path d="M22.6339 -14.0241L-12.71 8.69238L9.35038 43.0153L44.6942 20.2988L22.6339 -14.0241Z" fill="white"/>
    </mask>
    <g mask="url(#mask3_1_3683)">
    <path d="M27.9123 -40.1313L-38.6504 2.65039L4.07238 69.1214L70.6351 26.3396L27.9123 -40.1313Z" fill="url(#paint1_linear_1_3683)"/>
    </g>
    </g>
    </g>
    <g clip-path="url(#clip0_1_3683)">
    <path d="M46.2204 15.3971C48.338 15.3971 49.4636 16.157 49.4636 17.6203C49.4636 19.7414 48.1339 21.2751 44.655 21.2751H35.5479L37.9293 18.76H45.3409C46.1606 18.76 46.5088 18.4962 46.5088 17.9263C46.5088 17.5324 46.2028 17.3424 45.5872 17.3424H40.2544C38.0313 17.3424 37.0393 16.4067 37.0393 14.9891C37.0393 13.0016 38.3971 11.4961 41.8198 11.4961H50.3114L47.9159 14.0393H41.1303C40.3107 14.0393 39.9625 14.2574 39.9625 14.8449C39.9625 15.2389 40.2685 15.4007 40.8982 15.4007H46.2204V15.3971Z" fill="black"/>
    <path d="M58.7324 18.7741H53.6178L53.1781 21.2751H50.167L51.0429 16.2766H59.4641C60.5159 16.2766 61.1596 15.7348 61.1596 14.975C61.1596 14.4052 60.7058 14.0393 59.8581 14.0393H51.4369L53.8957 11.4961H60.034C62.7531 11.4961 64.2446 12.766 64.2446 14.6373C64.2446 17.0645 62.1269 18.7741 58.7324 18.7741Z" fill="black"/>
    <path d="M79.596 15.4711C79.596 19.4918 76.9366 21.437 71.4527 21.437C67.228 21.437 65.0928 20.1214 65.0928 17.2862C65.0928 13.2656 67.7521 11.3379 73.2361 11.3379C77.4608 11.3379 79.596 12.6394 79.596 15.4746M76.5567 15.7807C76.5567 14.2012 75.4452 13.8811 72.7858 13.8811C68.8531 13.8811 68.139 14.4791 68.139 16.9942C68.139 18.5737 69.2647 18.8938 71.8959 18.8938C75.8286 18.8938 76.5603 18.2782 76.5603 15.7807" fill="black"/>
    <path d="M94.0388 21.2751H89.99L88.2664 18.6897H83.6196L83.1658 21.2751H80.1406L81.0165 16.2766H89.5222C90.5317 16.2766 91.4076 15.7946 91.4076 15.0032C91.4076 14.3594 90.8518 14.0393 89.9161 14.0393H81.4105L83.8377 11.4961H90.1237C92.1709 11.4961 94.5981 12.1257 94.5981 14.465C94.5981 16.2343 93.3247 17.7258 91.4393 18.0881C91.7172 18.3379 92.0232 18.6861 92.5649 19.3756L94.0423 21.2751H94.0388Z" fill="black"/>
    <path d="M109.01 11.4961L106.583 14.0393H103.104L101.817 21.2751H98.7917L100.062 14.0393H95.4746L97.8983 11.4961H109.01Z" fill="black"/>
    <path d="M123.893 15.3971C126.011 15.3971 127.136 16.157 127.136 17.6203C127.136 19.7414 125.807 21.2751 122.328 21.2751H113.221L115.602 18.76H123.014C123.833 18.76 124.182 18.4962 124.182 17.9263C124.182 17.5324 123.876 17.3424 123.26 17.3424H117.924C115.701 17.3424 114.709 16.4067 114.709 14.9891C114.709 13.0016 116.066 11.4961 119.489 11.4961H127.981L125.585 14.0393H118.803C117.984 14.0393 117.635 14.2574 117.635 14.8449C117.635 15.2389 117.941 15.4007 118.571 15.4007H123.893V15.3971Z" fill="black"/>
    <path d="M136.405 18.7741H131.291L130.851 21.2751H127.84L128.716 16.2766H137.137C138.189 16.2766 138.832 15.7348 138.832 14.975C138.832 14.4052 138.379 14.0393 137.531 14.0393H129.11L131.565 11.4961H137.703C140.422 11.4961 141.914 12.766 141.914 14.6373C141.914 17.0645 139.793 18.7741 136.402 18.7741" fill="black"/>
    <path d="M157.268 15.4711C157.268 19.4918 154.609 21.437 149.125 21.437C144.9 21.437 142.765 20.1214 142.765 17.2862C142.765 13.2656 145.424 11.3379 150.904 11.3379C155.129 11.3379 157.264 12.6394 157.264 15.4746M154.225 15.7807C154.225 14.2012 153.114 13.8811 150.454 13.8811C146.521 13.8811 145.807 14.4791 145.807 16.9942C145.807 18.5737 146.933 18.8938 149.564 18.8938C153.497 18.8938 154.229 18.2782 154.229 15.7807" fill="black"/>
    <path d="M171.725 11.4961L169.298 14.0393H165.819L164.535 21.2751H161.507L162.78 14.0393H158.189L160.617 11.4961H171.725Z" fill="black"/>
    </g>
    <defs>
    <linearGradient id="paint0_linear_1_3683" x1="10.4946" y1="18.2306" x2="37.348" y2="34.7898" gradientUnits="userSpaceOnUse">
    <stop stop-color="#2CB34A"/>
    <stop offset="0.03" stop-color="#3FB74B"/>
    <stop offset="0.08" stop-color="#5FBF4E"/>
    <stop offset="0.15" stop-color="#79C550"/>
    <stop offset="0.21" stop-color="#8ECA51"/>
    <stop offset="0.29" stop-color="#9CCD53"/>
    <stop offset="0.38" stop-color="#A5CF53"/>
    <stop offset="0.53" stop-color="#A8D054"/>
    <stop offset="0.64" stop-color="#A5CF53"/>
    <stop offset="0.73" stop-color="#9CCD53"/>
    <stop offset="0.8" stop-color="#8CC951"/>
    <stop offset="0.86" stop-color="#77C450"/>
    <stop offset="0.92" stop-color="#5ABD4D"/>
    <stop offset="0.98" stop-color="#38B64B"/>
    <stop offset="1" stop-color="#2CB34A"/>
    </linearGradient>
    <linearGradient id="paint1_linear_1_3683" x1="10.0327" y1="21.8355" x2="37.3479" y2="4.27922" gradientUnits="userSpaceOnUse">
    <stop stop-color="#2CB34A"/>
    <stop offset="0.03" stop-color="#35B54A"/>
    <stop offset="0.19" stop-color="#66C04E"/>
    <stop offset="0.33" stop-color="#8AC951"/>
    <stop offset="0.45" stop-color="#A0CE53"/>
    <stop offset="0.53" stop-color="#A8D054"/>
    <stop offset="0.54" stop-color="#A4CF53"/>
    <stop offset="0.83" stop-color="#4EBA4C"/>
    <stop offset="0.96" stop-color="#2CB34A"/>
    <stop offset="1" stop-color="#2CB34A"/>
    </linearGradient>
    <clipPath id="clip0_1_3683">
    <rect width="136.178" height="10.1026" fill="white" transform="translate(35.5479 11.334)"/>
    </clipPath>
    </defs>
    </svg>
    