<svg width="21" height="22" viewBox="0 0 21 22" fill="none" xmlns="http://www.w3.org/2000/svg">
    <path d="M6.64125 5.45492C5.95875 4.77242 5.95875 3.66117 6.64125 2.97867C7.32375 2.29617 8.435 2.29617 9.1175 2.97867C9.8 3.66117 9.8 4.77242 9.1175 5.45492C8.42625 6.14617 7.32375 6.14617 6.64125 5.45492ZM17.5 18.2824L13.0638 13.8462H10.0625V10.6262C11.2875 11.6324 13.2125 12.5162 14.875 12.5162V10.6262C13.4225 10.6437 11.7162 9.86492 10.7887 8.84117L9.56375 7.48492C9.3975 7.30117 9.1875 7.15242 8.96 7.04742C8.70625 6.92492 8.4175 6.84617 8.12 6.84617H8.09375C7.00875 6.84617 6.125 7.72992 6.125 8.81492V13.8462C6.125 15.2987 7.2975 16.4712 8.75 16.4712H13.1862L16.2487 19.5337L17.5 18.2824Z" fill="#667085"/>
    <path d="M5.25 6.8457V14.7207C5.25 16.1732 6.4225 17.3457 7.875 17.3457H13.125V19.0957H7.875C5.46 19.0957 3.5 17.1357 3.5 14.7207V6.8457H5.25Z" fill="#2CB34A"/>
    </svg>
    