<svg width="23" height="22" viewBox="0 0 23 22" fill="none" xmlns="http://www.w3.org/2000/svg">
    <path d="M14.2504 15.8381L16.6768 13.4118L9.42613 6.16113L6.99979 8.58748L14.2504 15.8381ZM15.0592 13.4118L14.2504 14.2205L8.61735 8.58748L9.42613 7.7787L15.0592 13.4118Z" fill="#2CB34A"/>
    <path d="M2.95744 4.54608L5.38379 2.11973L4.18103 0.916976C3.85714 0.593085 3.42718 0.415039 2.96881 0.415039C2.51044 0.415039 2.08047 0.593085 1.75658 0.916976C1.08796 1.58559 1.08796 2.6747 1.75658 3.34332L2.95744 4.54608ZM3.76623 2.11973L2.95744 2.92851L2.56347 2.53454C2.33997 2.31104 2.33997 1.94926 2.56347 1.72576C2.7794 1.50983 3.15633 1.50983 3.37225 1.72576L3.76623 2.11973Z" fill="#2CB34A"/>
    <path d="M20.7131 21.589C21.1714 21.589 21.6014 21.411 21.9253 21.0871C22.5939 20.4185 22.5939 19.3294 21.9253 18.6608L20.7225 17.458L18.2962 19.8844L19.4989 21.0871C19.8228 21.411 20.2547 21.589 20.7131 21.589ZM20.7225 19.0756L21.1165 19.4695C21.2245 19.5775 21.2832 19.7215 21.2832 19.873C21.2832 20.0264 21.2245 20.1685 21.1165 20.2764C20.9006 20.4924 20.5237 20.4924 20.3077 20.2764L19.9138 19.8825L20.7225 19.0756Z" fill="#2CB34A"/>
    <path d="M18.2944 10.1787C18.6183 9.8548 19.0483 9.67676 19.5066 9.67676C19.965 9.67676 20.395 9.8548 20.7189 10.1787L21.5276 10.9875C21.8515 11.3114 22.0296 11.7413 22.0296 12.1997C22.0296 12.6581 21.8515 13.088 21.5276 13.4119L21.0541 13.8873C21.2284 13.9707 21.3894 14.0805 21.5276 14.2207L22.3364 15.0295C23.005 15.6981 23.005 16.7872 22.3364 17.4558L18.2944 21.4979C17.9705 21.8217 17.5406 21.9998 17.0822 21.9998C16.6238 21.9998 16.1939 21.8217 15.87 21.4979L15.0612 20.6891C14.921 20.5489 14.8093 20.3879 14.7278 20.2137L14.2524 20.6891C13.9285 21.013 13.4985 21.191 13.0402 21.191C12.5818 21.191 12.1518 21.013 11.8279 20.6891L11.0192 19.8803C10.6953 19.5564 10.5172 19.1264 10.5172 18.6681C10.5172 18.2097 10.6953 17.7797 11.0192 17.4558L18.2944 10.1787ZM15.7014 19.4768C15.7014 19.6303 15.7601 19.7723 15.8681 19.8803L16.6768 20.6891C16.8928 20.905 17.2697 20.905 17.4856 20.6891L21.5276 16.6471C21.6356 16.5391 21.6943 16.3951 21.6943 16.2436C21.6943 16.0902 21.6356 15.9481 21.5276 15.8402L20.7189 15.0314C20.6109 14.9234 20.4669 14.8647 20.3154 14.8647C20.162 14.8647 20.0199 14.9234 19.912 15.0314L15.8681 19.0734C15.7601 19.1814 15.7014 19.3234 15.7014 19.4768ZM11.8261 19.0715L12.6348 19.8803C12.8508 20.0962 13.2277 20.0962 13.4436 19.8803L15.0612 18.2627L19.1032 14.2207L20.7208 12.6031C20.9443 12.3796 20.9443 12.0179 20.7208 11.7944L19.912 10.9856C19.804 10.8776 19.6601 10.8189 19.5085 10.8189C19.3551 10.8189 19.2131 10.8776 19.1051 10.9856L11.8279 18.2627C11.6025 18.4862 11.6025 18.8499 11.8261 19.0715Z" fill="#667085"/>
    <path d="M1.34004 6.9703C1.01615 6.64641 0.838102 6.21644 0.838102 5.75807C0.838102 5.2997 1.01615 4.86974 1.34004 4.54585L5.38395 0.501937C5.70784 0.178046 6.1378 0 6.59617 0C7.05455 0 7.48451 0.178046 7.8084 0.501937L8.61718 1.31072C8.75734 1.45088 8.8691 1.61188 8.95054 1.78614L9.42596 1.31072C9.74985 0.986827 10.1798 0.808782 10.6382 0.808782C11.0966 0.808782 11.5265 0.986827 11.8504 1.31072L12.6592 2.1195C12.9831 2.44339 13.1611 2.87335 13.1611 3.33173C13.1611 3.7901 12.9831 4.22006 12.6592 4.54395L5.38205 11.8211C5.05816 12.145 4.6282 12.323 4.16983 12.323C3.71146 12.323 3.28149 12.145 2.9576 11.8211L2.14882 11.0123C1.82493 10.6884 1.64688 10.2585 1.64688 9.80009C1.64688 9.34171 1.82493 8.91175 2.14882 8.58786L2.62424 8.11244C2.44998 8.0291 2.28898 7.91924 2.14882 7.77908L1.34004 6.9703ZM2.9576 10.2054L3.76638 11.0142C3.98231 11.2301 4.35924 11.2301 4.57517 11.0142L11.8523 3.73706C12.0758 3.51356 12.0758 3.15179 11.8523 2.92828L11.0435 2.1195C10.9356 2.01154 10.7916 1.95282 10.6401 1.95282C10.4867 1.95282 10.3446 2.01154 10.2366 2.1195L8.61907 3.73706L4.57706 7.77908C4.57706 7.77908 4.57706 7.77908 4.57517 7.78097L2.9595 9.39664C2.7341 9.62015 2.7341 9.98192 2.9576 10.2054ZM7.8084 2.92828C7.91636 2.82032 7.97508 2.67637 7.97508 2.52484C7.97508 2.37142 7.91636 2.22936 7.8084 2.12139L6.99962 1.31261C6.89165 1.20465 6.7477 1.14593 6.59617 1.14593C6.44275 1.14593 6.30069 1.20465 6.19273 1.31261L2.15071 5.35463C2.04275 5.46259 1.98403 5.60654 1.98403 5.75807C1.98403 5.91149 2.04275 6.05355 2.15071 6.16152L2.9595 6.9703C3.17542 7.18622 3.55235 7.18622 3.76828 6.9703L7.8084 2.92828Z" fill="#667085"/>
    </svg>
    