<svg width="27" height="24" viewBox="0 0 27 24" fill="none" xmlns="http://www.w3.org/2000/svg">
    <mask id="mask0_1_737" style="mask-type:luminance" maskUnits="userSpaceOnUse" x="0" y="0" width="27" height="24">
    <path d="M19.0459 20.6781L2.89658 11.1642V6.25142L3.04391 6.15792L7.56005 3.25955L7.74704 3.37004L23.8283 12.8443V17.7571L23.681 17.8506L19.1649 20.749L19.0459 20.6781ZM0.550683 4.96797V12.5043L19.2159 23.5L21.151 22.2591L21.6694 21.9247L26.1742 19.032V11.4957L7.65921 0.587831L7.50338 0.5L0.547852 4.96514L0.550683 4.96797Z" fill="white"/>
    </mask>
    <g mask="url(#mask0_1_737)">
    <path d="M7.60987 -10.9373L-9.72363 17.1719L19.1163 34.956L36.4498 6.84676L7.60987 -10.9373Z" fill="#2CB34A"/>
    </g>
    <mask id="mask1_1_737" style="mask-type:luminance" maskUnits="userSpaceOnUse" x="0" y="0" width="27" height="24">
    <path d="M13.2201 4.01562L13.0388 4.12895L7.81718 7.48063L5.70644 8.9454L16.0448 15.034L16.3026 15.2011L11.1065 18.5358L10.996 18.6066L8.075 20.4822L7.95317 20.4114L4.80264 18.5556L7.68968 16.7027L5.42312 15.3683L5.31262 15.4391L0.326172 18.6406L8.1005 23.2531L13.1918 19.9864L13.3731 19.8703L18.5919 16.5186L20.7026 15.0566L10.3671 8.96524L10.1064 8.80091L15.3025 5.46622L15.413 5.39539L18.3369 3.51981L18.4587 3.59064L21.6064 5.44639L18.8809 7.19448L21.1474 8.52892L26.0857 5.36139L18.3114 0.746094L13.2201 4.01562Z" fill="white"/>
    </mask>
    <g mask="url(#mask1_1_737)">
    <mask id="mask2_1_737" style="mask-type:luminance" maskUnits="userSpaceOnUse" x="-31" y="-32" width="89" height="88">
    <path d="M57.2147 -31.9971H-30.8047V55.9968H57.2147V-31.9971Z" fill="white"/>
    </mask>
    <g mask="url(#mask2_1_737)">
    <mask id="mask3_1_737" style="mask-type:luminance" maskUnits="userSpaceOnUse" x="-10" y="-11" width="47" height="46">
    <path d="M18.5559 -10.9733L-9.91113 7.32324L7.85694 34.968L36.324 16.6714L18.5559 -10.9733Z" fill="white"/>
    </mask>
    <g mask="url(#mask3_1_737)">
    <path d="M22.8069 -32.0007L-30.8047 2.45703L3.60554 55.9948L57.2172 21.5371L22.8069 -32.0007Z" fill="#2CB34A"/>
    </g>
    </g>
    </g>
    </svg>
    