<svg width="20" height="20" viewBox="0 0 20 20" fill="none" xmlns="http://www.w3.org/2000/svg">
<path d="M10 10.625C11.3807 10.625 12.5 9.50571 12.5 8.125C12.5 6.74429 11.3807 5.625 10 5.625C8.61929 5.625 7.5 6.74429 7.5 8.125C7.5 9.50571 8.61929 10.625 10 10.625Z" stroke="#2CB34A" stroke-width="1.25" stroke-linecap="round" stroke-linejoin="round"/>
<path d="M16.25 8.25C16.25 13.875 10 18.25 10 18.25C10 18.25 3.75 13.875 3.75 8.25C3.75 6.5924 4.40848 5.00268 5.58058 3.83058C6.75268 2.65848 8.3424 2 10 2C11.6576 2 13.2473 2.65848 14.4194 3.83058C15.5915 5.00268 16.25 6.5924 16.25 8.25Z" stroke="#667085" stroke-width="1.25" stroke-linecap="round" stroke-linejoin="round"/>
</svg>
