<svg width="29" height="29" viewBox="0 0 29 29" fill="none" xmlns="http://www.w3.org/2000/svg">
    <path d="M14.524 3.5166C10.5244 3.5166 7.27397 6.76702 7.27397 10.7666V14.2587C7.27397 14.9958 6.9598 16.1195 6.58522 16.7479L5.19563 19.0558C4.33772 20.4816 4.9298 22.0645 6.50063 22.5962C11.7086 24.3362 17.3273 24.3362 22.5352 22.5962C23.9973 22.1129 24.6377 20.3849 23.8402 19.0558L22.4506 16.7479C22.0881 16.1195 21.774 14.9958 21.774 14.2587V10.7666C21.774 6.7791 18.5115 3.5166 14.524 3.5166Z" stroke="#667085" stroke-width="1.8125" stroke-miterlimit="10" stroke-linecap="round"/>
    <path d="M16.7599 3.86723C16.3853 3.75848 15.9986 3.67389 15.5999 3.62556C14.4399 3.48056 13.3282 3.56514 12.2891 3.86723C12.6395 2.97306 13.5095 2.34473 14.5245 2.34473C15.5395 2.34473 16.4095 2.97306 16.7599 3.86723Z" stroke="#667085" stroke-width="1.8125" stroke-miterlimit="10" stroke-linecap="round" stroke-linejoin="round"/>
    <path d="M18.1484 23.0303C18.1484 25.024 16.5172 26.6553 14.5234 26.6553C13.5326 26.6553 12.6143 26.2444 11.9618 25.5919C11.3093 24.9394 10.8984 24.0211 10.8984 23.0303" stroke="#2CB34A" stroke-width="1.8125" stroke-miterlimit="10"/>
    </svg>
    