<svg width="24" height="24" viewBox="0 0 24 24" fill="none" xmlns="http://www.w3.org/2000/svg">
    <path d="M11.9997 24C11.8008 24 11.6101 23.921 11.4694 23.7803C11.3288 23.6397 11.2497 23.4489 11.2497 23.25V21.3105L10.2807 22.281C10.1399 22.4216 9.94898 22.5006 9.74996 22.5004C9.55093 22.5003 9.36012 22.4211 9.21949 22.2803C9.07886 22.1394 8.99993 21.9485 9.00007 21.7495C9.00021 21.5504 9.07941 21.3596 9.22024 21.219L11.2497 19.1895V13.299L6.14974 16.2435L5.40574 19.0185C5.35402 19.2106 5.22809 19.3744 5.05565 19.4737C4.88321 19.573 4.67839 19.5997 4.48624 19.548C4.29409 19.4963 4.13035 19.3704 4.03105 19.1979C3.93175 19.0255 3.90502 18.8206 3.95674 18.6285L4.31224 17.3055L2.63224 18.2745C2.46007 18.3724 2.25617 18.3982 2.06504 18.3463C1.87391 18.2944 1.71106 18.169 1.61203 17.9975C1.513 17.826 1.48584 17.6223 1.53646 17.4308C1.58708 17.2393 1.71138 17.0757 1.88224 16.9755L3.56224 16.0065L2.23624 15.651C2.1411 15.6254 2.05193 15.5813 1.97383 15.5212C1.89573 15.4612 1.83022 15.3863 1.78105 15.3009C1.73188 15.2155 1.70002 15.1213 1.68726 15.0236C1.67451 14.9259 1.68113 14.8266 1.70674 14.7315C1.73235 14.6364 1.77644 14.5472 1.83651 14.4691C1.89658 14.391 1.97144 14.3255 2.05683 14.2763C2.14221 14.2271 2.23644 14.1953 2.33414 14.1825C2.43184 14.1698 2.5311 14.1764 2.62624 14.202L5.39824 14.9445L10.4997 12L5.39974 9.0555L2.62474 9.798C2.43384 9.84558 2.23189 9.81624 2.06242 9.71631C1.89295 9.61638 1.76953 9.45387 1.71876 9.26379C1.668 9.07371 1.69395 8.8713 1.79103 8.70018C1.88811 8.52906 2.04854 8.40294 2.23774 8.349L3.56224 7.9935L1.88224 7.0245C1.79625 6.97561 1.72079 6.9102 1.66019 6.83203C1.59959 6.75386 1.55505 6.66447 1.52913 6.56902C1.50322 6.47357 1.49644 6.37393 1.50919 6.27584C1.52193 6.17776 1.55396 6.08316 1.60342 5.9975C1.65287 5.91185 1.71878 5.83682 1.79735 5.77674C1.87592 5.71665 1.9656 5.67271 2.06123 5.64743C2.15685 5.62214 2.25653 5.61603 2.35453 5.62943C2.45253 5.64283 2.54691 5.67548 2.63224 5.7255L4.31224 6.6945L3.95674 5.37C3.92945 5.27427 3.92148 5.17406 3.93332 5.07522C3.94515 4.97638 3.97654 4.88088 4.02567 4.79429C4.07479 4.70771 4.14065 4.63177 4.21942 4.5709C4.2982 4.51004 4.3883 4.46546 4.48447 4.43977C4.58065 4.41409 4.68098 4.4078 4.77961 4.42129C4.87824 4.43478 4.97319 4.46776 5.05894 4.51832C5.1447 4.56889 5.21952 4.63602 5.27906 4.71579C5.3386 4.79557 5.38166 4.88641 5.40574 4.983L6.14824 7.7565L11.2497 10.701V4.8105L9.22024 2.781C9.15051 2.71137 9.09517 2.62868 9.0574 2.53766C9.01962 2.44664 9.00014 2.34908 9.00007 2.25053C9 2.15198 9.01934 2.05439 9.05699 1.96332C9.09464 1.87225 9.14986 1.78948 9.21949 1.71975C9.28912 1.65002 9.37181 1.59468 9.46283 1.55691C9.55384 1.51913 9.65141 1.49965 9.74996 1.49958C9.8485 1.49951 9.9461 1.51885 10.0372 1.5565C10.1282 1.59415 10.211 1.64937 10.2807 1.719L11.2497 2.6895V0.75C11.2497 0.551088 11.3288 0.360322 11.4694 0.21967C11.6101 0.0790176 11.8008 0 11.9997 0C12.1987 0 12.3894 0.0790176 12.5301 0.21967C12.6707 0.360322 12.7497 0.551088 12.7497 0.75V2.6895L13.7202 1.719C13.8611 1.57837 14.052 1.49944 14.251 1.49958C14.45 1.49972 14.6409 1.57892 14.7815 1.71975C14.9221 1.86058 15.001 2.05151 15.0009 2.25053C15.0008 2.44955 14.9216 2.64037 14.7807 2.781L12.7497 4.8105V10.701L17.8497 7.7565L18.5937 4.9815C18.6455 4.78935 18.7714 4.62562 18.9438 4.52632C19.1163 4.42701 19.3211 4.40028 19.5132 4.452C19.7054 4.50372 19.8691 4.62965 19.9684 4.80209C20.0677 4.97453 20.0945 5.17935 20.0427 5.3715L19.6887 6.6945L21.3687 5.7255C21.5409 5.62761 21.7448 5.6018 21.9359 5.65369C22.1271 5.70558 22.2899 5.83096 22.3889 6.00248C22.488 6.17399 22.5151 6.37772 22.4645 6.56919C22.4139 6.76066 22.2896 6.92434 22.1187 7.0245L20.4387 7.9935L21.7632 8.349C21.9554 8.40072 22.1191 8.52665 22.2184 8.69909C22.3177 8.87153 22.3445 9.07635 22.2927 9.2685C22.241 9.46065 22.1151 9.62438 21.9427 9.72369C21.7702 9.82299 21.5654 9.84972 21.3732 9.798L18.6012 9.0555L13.4997 12L18.5997 14.9445L21.3732 14.202C21.5654 14.1505 21.7701 14.1774 21.9424 14.2768C22.1147 14.3763 22.2405 14.5401 22.292 14.7323C22.3435 14.9244 22.3166 15.1291 22.2171 15.3014C22.1177 15.4737 21.9539 15.5995 21.7617 15.651L20.4372 16.0065L22.1172 16.9755C22.2881 17.0757 22.4124 17.2393 22.463 17.4308C22.5136 17.6223 22.4865 17.826 22.3874 17.9975C22.2884 18.169 22.1256 18.2944 21.9344 18.3463C21.7433 18.3982 21.5394 18.3724 21.3672 18.2745L19.6872 17.3055L20.0412 18.63C20.0685 18.7257 20.0765 18.8259 20.0647 18.9248C20.0528 19.0236 20.0214 19.1191 19.9723 19.2057C19.9232 19.2923 19.8573 19.3682 19.7786 19.4291C19.6998 19.49 19.6097 19.5345 19.5135 19.5602C19.4173 19.5859 19.317 19.5922 19.2184 19.5787C19.1197 19.5652 19.0248 19.5322 18.939 19.4817C18.8533 19.4311 18.7785 19.364 18.7189 19.2842C18.6594 19.2044 18.6163 19.1136 18.5922 19.017L17.8497 16.2435L12.7497 13.299V19.1895L14.7792 21.219C14.9201 21.3596 14.9993 21.5504 14.9994 21.7495C14.9995 21.9485 14.9206 22.1394 14.78 22.2803C14.6394 22.4211 14.4485 22.5003 14.2495 22.5004C14.0505 22.5006 13.8596 22.4216 13.7187 22.281L12.7482 21.3105V23.25C12.7482 23.4489 12.6692 23.6397 12.5286 23.7803C12.3879 23.921 12.1987 24 11.9997 24Z" fill="#667085"/>
    </svg>
    