<svg width="27" height="20" viewBox="0 0 27 20" fill="none" xmlns="http://www.w3.org/2000/svg">
    <path d="M13.0692 11.4063C5.74084 11.4063 0 9.51945 0 7.11055C0 4.70149 5.74084 2.81445 13.0692 2.81445C20.3979 2.81445 26.1388 4.7014 26.1388 7.11047C26.1389 9.51945 20.3979 11.4063 13.0692 11.4063ZM13.0692 3.29385C5.5383 3.29385 0.479656 5.26734 0.479656 7.11047C0.479656 8.95359 5.5383 10.9269 13.0692 10.9269C20.6002 10.9269 25.6591 8.95359 25.6591 7.11047C25.6591 5.26734 20.6002 3.29385 13.0692 3.29385Z" stroke="#667085" stroke-width="0.526316" stroke-miterlimit="10"/>
    <path d="M13.0697 9.14629C8.52312 9.14629 3.82031 7.96226 3.82031 5.98046C3.82031 3.99865 8.52312 2.81445 13.0697 2.81445C17.6165 2.81445 22.3193 3.99865 22.3193 5.98046C22.3193 7.96226 17.6165 9.14629 13.0697 9.14629ZM13.0697 3.29385C7.90147 3.29385 4.30005 4.70981 4.30005 5.98046C4.30005 7.2511 7.90147 8.66689 13.0697 8.66689C18.2381 8.66689 21.8395 7.2511 21.8395 5.98046C21.8395 4.70981 18.2381 3.29385 13.0697 3.29385Z" stroke="#667085" stroke-width="0.526316" stroke-miterlimit="10"/>
    <path d="M13.0693 9.14599C9.77317 9.14599 6.71392 8.55983 5.08548 7.61649C5.01143 7.5736 4.96582 7.49462 4.96582 7.40902C4.96582 7.3235 5.01143 7.24452 5.08548 7.20154C6.71417 6.25794 9.77351 5.67188 13.0693 5.67188C16.3651 5.67188 19.4245 6.25794 21.0532 7.20154C21.1271 7.24452 21.1728 7.3235 21.1728 7.40902C21.1728 7.49454 21.1271 7.5736 21.0532 7.61649C19.4247 8.55992 16.3655 9.14599 13.0693 9.14599ZM5.7208 7.40902C7.35552 8.19033 10.1066 8.66658 13.0693 8.66658C16.0321 8.66658 18.7831 8.19041 20.4177 7.40902C18.783 6.62771 16.0317 6.15128 13.0693 6.15128C10.1069 6.15128 7.35544 6.62771 5.7208 7.40902Z" stroke="#2CB34A" stroke-width="0.526316" stroke-miterlimit="10"/>
    <path d="M13.0692 18.9913C5.74084 18.9913 0 17.1042 0 14.695V7.10986C0 6.97738 0.107345 6.87012 0.239828 6.87012C0.372311 6.87012 0.479741 6.97738 0.479741 7.10986C0.479741 8.95299 5.53838 10.9263 13.0693 10.9263C20.6003 10.9263 25.6592 8.95299 25.6592 7.10986C25.6592 6.97738 25.7666 6.87012 25.8991 6.87012C26.0315 6.87012 26.139 6.97738 26.139 7.10986V14.6951C26.1389 17.1042 20.3979 18.9913 13.0692 18.9913ZM0.479656 8.28896V14.6951C0.479656 16.5382 5.5383 18.5117 13.0692 18.5117C20.6002 18.5117 25.6591 16.5382 25.6591 14.6951V8.28896C24.1361 10.107 19.1491 11.4057 13.0692 11.4057C6.98966 11.4056 2.0027 10.1069 0.479656 8.28896Z" stroke="#667085" stroke-width="0.526316" stroke-miterlimit="10"/>
    <path d="M4.45089 17.9491C4.34779 17.9201 4.27637 17.8257 4.27637 17.7185V10.1332C4.27637 10.0581 4.31178 9.9874 4.37157 9.94196C4.43169 9.8967 4.50932 9.88218 4.58167 9.90264M4.75619 17.5364V10.4478" stroke="#667085" stroke-width="0.526316" stroke-miterlimit="10"/>
    <path d="M21.5573 9.90264C21.6298 9.88218 21.7074 9.8967 21.7675 9.94196C21.8273 9.9874 21.8626 10.0581 21.8626 10.1332V17.7185C21.8626 17.8257 21.7913 17.92 21.6882 17.9491M21.3828 17.5362V10.4476" stroke="#667085" stroke-width="0.526316" stroke-miterlimit="10"/>
    <path d="M13.0693 18.9915C12.1983 18.9915 11.3279 18.9637 10.4822 18.9092C10.356 18.901 10.2578 18.7966 10.2578 18.67V15.4282C10.2578 14.2298 11.5191 13.2549 13.0693 13.2549C14.6194 13.2549 15.8808 14.2298 15.8808 15.4282V18.67C15.8808 18.7966 15.7827 18.901 15.6564 18.9092C14.8107 18.9637 13.9402 18.9915 13.0693 18.9915ZM10.7375 18.4445C12.2665 18.534 13.8721 18.534 15.401 18.4445V15.4281C15.401 14.4942 14.3551 13.7341 13.0693 13.7341C11.7835 13.7341 10.7375 14.4941 10.7375 15.4281V18.4445Z" stroke="#2CB34A" stroke-width="0.526316" stroke-miterlimit="10"/>
    </svg>
    