<svg width="44" height="44" viewBox="0 0 44 44" fill="none" xmlns="http://www.w3.org/2000/svg">
    <circle cx="22" cy="22" r="22" fill="#F2FFE2"/>
    <g clip-path="url(#clip0_1_3299)">
    <path d="M17.4824 28.2784L21.3123 27.1806L25.1423 28.2784M25.8242 22.666C25.8242 25.1578 23.8043 27.1777 21.3125 27.1777C18.8207 27.1777 16.8008 25.1578 16.8008 22.666C16.8008 20.1743 18.8207 18.1543 21.3125 18.1543C23.8043 18.1543 25.8242 20.1743 25.8242 22.666Z" stroke="#2CB34A" stroke-width="1.80469" stroke-linecap="round" stroke-linejoin="round"/>
    <path d="M34.3965 22.666C33.7673 21.8242 32.9502 21.1411 32.0102 20.6711C31.0702 20.2011 30.0334 19.9572 28.9824 19.959C29.6675 19.9597 30.3388 19.7654 30.9175 19.3989C31.4963 19.0323 31.9587 18.5086 32.2509 17.889C32.5431 17.2694 32.6529 16.5794 32.5675 15.8997C32.4821 15.22 32.205 14.5786 31.7686 14.0505C31.3323 13.5224 30.7546 13.1294 30.1032 12.9174C29.4518 12.7054 28.7534 12.6832 28.0898 12.8533C27.4263 13.0235 26.8248 13.3789 26.3557 13.8782C25.8866 14.3775 25.5693 14.9999 25.4409 15.6728M8.22852 22.666C8.85767 21.8242 9.67484 21.1411 10.6148 20.6711C11.5548 20.2011 12.5916 19.9572 13.6426 19.959C12.9575 19.9597 12.2866 19.7654 11.7078 19.3989C11.1291 19.0323 10.6666 18.5086 10.3744 17.889C10.0822 17.2694 9.97244 16.5794 10.0578 15.8997C10.1432 15.22 10.4203 14.5786 10.8567 14.0505C11.293 13.5224 11.8707 13.1294 12.5221 12.9174C13.1736 12.7054 13.8719 12.6832 14.5355 12.8533C15.1991 13.0235 15.8005 13.3789 16.2696 13.8782C16.7387 14.3775 17.056 14.9999 17.1844 15.6728M14.8154 31.2383C15.4097 30.0213 16.3337 28.9957 17.4824 28.2784M25.1423 28.2784C26.2909 28.9957 27.215 30.0213 27.8092 31.2383" stroke="#2CB34A" stroke-width="1.80469" stroke-linecap="round" stroke-linejoin="round"/>
    </g>
    <defs>
    <clipPath id="clip0_1_3299">
    <rect width="28.875" height="28.875" fill="white" transform="translate(6.875 6.875)"/>
    </clipPath>
    </defs>
    </svg>
    